<?xml version="1.0" encoding="UTF-8"?>
<svg id="Layer_1" data-name="Layer 1" xmlns="http://www.w3.org/2000/svg" viewBox="0 0 32 32">
  <defs>
    <style>
      .cls-1 {
        fill: #fafafa;
      }

      .cls-2 {
        fill: #020302;
      }

      .cls-3 {
        fill: #0f0f0f;
      }

      .cls-4 {
        fill: #f8f7f7;
      }

      .cls-5 {
        fill: #121212;
      }

      .cls-6 {
        fill: #fff;
      }

      .cls-7 {
        fill: #26ad52;
      }

      .cls-8 {
        fill: #94d0a5;
      }

      .cls-9 {
        fill: #020202;
      }

      .cls-10 {
        fill: #030303;
      }

      .cls-11 {
        fill: #060606;
      }

      .cls-12 {
        fill: #247b47;
      }

      .cls-13 {
        fill: #f5f4f3;
      }

      .cls-14 {
        fill: #010202;
      }

      .cls-15 {
        fill: #080808;
      }
    </style>
  </defs>
  <path class="cls-6" d="M32,0v32H0V0h32ZM18.38,13.19c1.21-.97,2.16-2.21,3.12-3.41V1.44c-.96.96-1.99,1.85-3.12,2.59v9.16ZM6.06,16.31c.23,4.34,5.15,3.67,8.02,2.55,4.76-1.85,9.26-6.18,11.05-10.98.12-.11,1.08.32,1.31.31l-1.03-4.12-3.41,3.09c-.03.15.07.08.16.09.43.06.87.09,1.28.22-.62,1.66-1.71,3.16-2.9,4.47-2.09,2.29-5.02,4.66-8.05,5.52-2.23.63-5.34.8-6.36-1.77-.03-.07-.02-.25-.12-.25l.06.87ZM17.69,4.5c-.97.43-1.95.88-3.02,1.01l-.11.08v10.28c.6-.19,1.21-.62,1.73-.99.49-.34.96-.7,1.39-1.11V4.5ZM13.88,5.62c-1.06.23-2.16.45-3.12.97v10.53c1.09,0,2.12-.42,3.12-.81V5.62ZM10.12,6.88c-1.43.63-2.85,1.77-3.12,3.41v5.74c.34.41.75.76,1.25.95.11.04.7.22.78.22h1.09V6.88ZM10.88,22.81c.19-1.51-2.93-1.5-3.12-.28-.09.54.11.96.61,1.2.22.1,1.43.32,1.45.43.1.41-.43.38-.72.33-.4-.06-.32-.43-.35-.43h-1.06c-.08,1.24,1.27,1.35,2.21,1.24.73-.09,1.21-.65,1.1-1.4-.15-.98-1.95-.82-2.05-1.14-.12-.34.49-.43.72-.28.08.05.21.32.25.32h.97ZM12.81,24.12h1.16c.05,0,.33-.17.4-.22.67-.52.6-1.77-.21-2.09-.05-.02-.42-.12-.44-.12h-1.94s-.09.09-.09.09v3.47h1.12v-1.12ZM16.69,24.38v-2.59s-.09-.09-.09-.09h-1s-.09.09-.09.09v3.47h3v-.88h-1.81ZM20.25,25.25v-3.47s-.09-.09-.09-.09h-.94s-.09.09-.09.09v3.47h1.12ZM23.25,22.62h1.09c.14,0,.14-.94,0-.94h-3.41v.94h1.09s.09.09.09.09v2.53h1.12v-2.62ZM14.22,27.38c-.31-.06-.76.04-1.09,0v2.31h1.16s.33-.19.37-.25c.15-.2.13-.48,0-.68-.08-.13-.36-.21-.28-.31.02-.03.21-.03.28-.25.11-.35-.07-.75-.44-.82ZM15.62,27.38s-.25-.01-.25,0v2.31s.25.01.25,0v-2.31ZM16.62,27.38h-.31v2.31h1.12s0-.24,0-.25c-.03-.03-.69.02-.81,0v-2.06ZM18.25,27.38h-.31v2.31h1.12s0-.24,0-.25c-.03-.03-.69.02-.81,0v-2.06Z"/>
  <path class="cls-7" d="M6.12,15.69c1.02,2.56,4.13,2.4,6.36,1.77,3.02-.86,5.96-3.22,8.05-5.52,1.19-1.31,2.28-2.81,2.9-4.47-.41-.14-.85-.16-1.28-.22-.09-.01-.18.06-.16-.09l3.41-3.09,1.03,4.12c-.23.02-1.18-.41-1.31-.31-1.79,4.8-6.3,9.12-11.05,10.98-2.87,1.12-7.79,1.8-8.02-2.55,0-.19-.04-.49.06-.62Z"/>
  <path class="cls-7" d="M13.88,5.62v10.69c-1,.39-2.03.8-3.12.81V6.59c.96-.52,2.06-.74,3.12-.97Z"/>
  <path class="cls-12" d="M17.69,4.5v9.28c-.43.4-.91.77-1.39,1.11-.52.36-1.13.79-1.73.99V5.59l.11-.08c1.07-.14,2.05-.58,3.02-1.01Z"/>
  <path class="cls-7" d="M10.12,6.88v10.31h-1.09c-.08,0-.67-.18-.78-.22-.5-.19-.91-.53-1.24-.95v-5.74c.26-1.63,1.68-2.78,3.11-3.41Z"/>
  <path class="cls-12" d="M18.38,13.19V4.03c1.14-.75,2.16-1.64,3.12-2.59v8.34c-.97,1.2-1.92,2.44-3.12,3.41Z"/>
  <path class="cls-14" d="M10.88,22.81h-.97s-.17-.26-.25-.32c-.23-.15-.83-.06-.72.28.11.31,1.9.15,2.05,1.14.12.75-.37,1.31-1.1,1.4-.94.11-2.29,0-2.21-1.24h1.06s-.06.37.35.43c.29.05.82.08.72-.33-.03-.11-1.24-.33-1.45-.43-.5-.24-.69-.66-.61-1.2.19-1.22,3.31-1.23,3.12.28Z"/>
  <path class="cls-9" d="M12.81,24.12v1.12h-1.12v-3.47s.09-.09.09-.09h1.94s.39.1.44.12c.81.32.88,1.57.21,2.09-.07.05-.35.22-.4.22h-1.16ZM12.81,23.31c.35-.02.8.13.82-.34.02-.57-.4-.38-.82-.41v.75Z"/>
  <path class="cls-2" d="M23.25,22.62v2.62h-1.12v-2.53s-.09-.09-.09-.09h-1.09v-.94h3.41c.14,0,.14.94,0,.94h-1.09Z"/>
  <path class="cls-10" d="M16.69,24.38h1.81v.88h-3v-3.47s.09-.09.09-.09h1s.09.09.09.09v2.59Z"/>
  <path class="cls-9" d="M20.25,25.25h-1.12v-3.47s.09-.09.09-.09h.94s.09.09.09.09v3.47Z"/>
  <path class="cls-15" d="M14.22,27.38c.37.07.55.47.44.82-.07.22-.26.22-.28.25-.08.11.19.18.28.31.13.2.15.48,0,.68-.04.06-.34.25-.37.25h-1.16v-2.31c.33.04.78-.06,1.09,0ZM13.44,28.38c1.28.22,1.28-.97,0-.75v.75ZM13.44,29.44c1.38.23,1.35-1.02,0-.81v.81Z"/>
  <path class="cls-5" d="M16.62,27.38v2.06c.13.02.78-.03.81,0,0,0,.01.25,0,.25h-1.12v-2.31h.31Z"/>
  <path class="cls-3" d="M18.25,27.38v2.06c.13.02.78-.03.81,0,0,0,.01.25,0,.25h-1.12v-2.31h.31Z"/>
  <path class="cls-11" d="M15.62,27.38v2.31s-.25.01-.25,0v-2.31s.21,0,.25,0Z"/>
  <path class="cls-8" d="M6.12,15.69c-.11.14-.07.44-.06.62l-.06-.87c.11,0,.09.17.12.25Z"/>
  <path class="cls-13" d="M12.81,23.31v-.75c.42.03.84-.17.82.41-.02.47-.47.32-.82.34Z"/>
  <path class="cls-1" d="M13.44,29.44v-.81c1.35-.21,1.38,1.04,0,.81Z"/>
  <path class="cls-4" d="M13.44,28.38v-.75c1.28-.22,1.28.97,0,.75Z"/>
</svg>