<?xml version="1.0" encoding="UTF-8"?>
<svg id="Layer_1" data-name="Layer 1" xmlns="http://www.w3.org/2000/svg" viewBox="0 0 330.11 235.56">
  <defs>
    <style>
      .cls-1 {
        fill: #576366;
      }

      .cls-2 {
        fill: #d5dfe7;
      }

      .cls-3 {
        fill: #465156;
      }

      .cls-4 {
        fill: #8cb9bd;
      }

      .cls-5 {
        fill: #263238;
      }

      .cls-6 {
        fill: #353d42;
      }

      .cls-7 {
        fill: #f3f1ef;
      }

      .cls-8 {
        fill: #fdfaf7;
      }

      .cls-9 {
        fill: #708b8f;
      }

      .cls-10 {
        fill: #424e53;
      }

      .cls-11 {
        fill: #92aabc;
      }

      .cls-12 {
        fill: #c4dfdb;
      }

      .cls-13 {
        fill: #cfe0e8;
      }

      .cls-14 {
        fill: #efd5a2;
      }

      .cls-15 {
        fill: #faecc3;
      }

      .cls-16 {
        fill: #1c272d;
      }
    </style>
  </defs>
  <path class="cls-8" d="M330.11,0v235.56H0V0h330.11ZM232.87,21.6c-6.3,1-14.95,6.85-18.23,12.24-1.23,2.01-1.41,3.31-2.01,5.52-.08.29-.35.03-.45,1.31-.07,1,0,2-.23,2.99-.13.05-.32.35-.46.46-6.69-.26-13.63.07-20.35,0-.52,0-1-.24-1.48-.24-.08,0-.15,0-.23,0-.15,0-.31,0-.46,0-6.43-.04-14.06-.48-20.35,0-1.41.11-2.53.38-3.77,1.06-1.76.97-2.13,1.61-2.8,3.37-.13.33-.36-.08-.44,1.1-.34,4.97.05,10.57,0,15.63,0,.48.1,2.88,0,2.99-.04.05-.52-.03-.69,0-.65-.11-2.75.15-3.56.23-1.89.18-3.77.57-5.63.92-5.41,1.01-10.46,2.64-15.32,5.25-7.28,3.91-14.65,11.08-16.63,18.88-.17.68-.64,1.79-.68,2-.16.65.09,1.66,0,2.37-.09.06-.18.21-.23.23-8.7-.09-17.41.12-26.1.01-4.79-.06-9.79-.02-14.59-.24-1.36-.06-2.85-.19-4.14-.57,2.35-1.07,4.36-1.97,6.21-3.79,1.44-1.43,2.27-2.98,2.53-5.06.08-.69.04-1.8,0-2.53-.09-1.64-1.18-3.81-2.3-5.06-2.6-2.89-6.51-4.56-10.34-5.06-4.28-.55-8.87.13-12.64,2.3-.89.51-1.75,1.17-2.53,1.84-.19.16-.58.21-.64.28-.16.21,0,.49-.05.64-1.24.86-1.26,1.13-1.84,2.53-.81,1.97-1.31,3.98-.68,6.27.03.1.74,1.46.91,1.78,1.7,3.21,4.34,4.09,7.29,5.69.27.15.39,0,.29.51-4.15.41-8.18,1.97-11.72,4.14-.97.6-1.66,1.13-2.53,1.84-1.68,1.36-2.21,1.96-3.45,3.68-1.5,2.08-1.67,2.39-2.32,4.88-.05.19-.4.17-.44.33-.15.65-.19,3.58.06,4.15.03.06.3.08.4.22.14.2.1.51.29.69.32.31,1.21.6,1.54.75.62.28,1.96.92,2.64.92h45.29c.28,0,1.35-.35,1.72-.46.6-.18,1.02-.23,1.58-.62.15-.1,1.36-1.53,1.4-1.63.37-1,.24-2.9,0-3.96-.54-2.48-2.84-6.44-4.98-8.24-1.77-1.48-4.2-2.95-6.28-3.94,0-.44.83-.18,1.15-.23,7.66.09,15.33-.12,22.99,0,.08,0,.16,0,.23,0,.5,0,.97.23,1.48.24,3.18.06,6.37-.07,9.55-.01.03.14-.04.35,0,.46.09.23.23.43.23.46.06.5-.03,1.09,0,1.61.14,2.35,2,7.63,3.68,9.19,0,1.39,1,1.67,1.61,2.47.2.26.26.72.46.97,2.4,3.04,6.39,6.24,9.68,8.36.36.23,1.68.4,1.25,1.06l-33.82,23.18c-.51.19-.63-1.3-.79-1.64-1.39-2.85-4.97-5.39-7.8-6.84-3.33-1.7-5.7-2.45-9.43-2.53-.08,0-.15,0-.23,0-.24-.38-.87-.23-1.26-.23-1.4-.01-2.86-.06-4.26,0-1.24.06-1.22.46-1.29.47-1.58.17-2.41,0-4.22.57-5.55,1.75-12.11,6.04-13.8,11.6-.48,1.59-1.07,3.94-.68,5.58.04.16.37.16.43.34.32,1.01.69,2.31,1.25,3.19.1.16,1.05.92,1.07.99.01.03-.29.42-.23.46.09.05.46-.1.64.05.1.08.03.42.13.54.57.7,1.38,1.2,1.99,1.7.94.77,1.48,1.17,2.53,1.84.18.12.35.16.46.23.06.03.17-.03.23,0,.03.02-.02.42.23.56,4.79,2.73,11.91,3.68,17.36,3.35,1.87-.11,4.17-.83,5.97-.7,2.35.18,5.38,1.91,7.93,2.3,2.41.36,5.96-.35,4.64-3.59-.17-.41-.5-.38-.6-.56-.34-.59-.65-1.38-1.05-2.05-.03-.04.03-.21-.07-.38-.09-.15-1.05-1.08-1.07-1.15-.26-1.01.34-.93.44-1.16.64-1.51,1.04-2.65,1.17-4.42.03-.38-.02-.77,0-1.15.69.13.44-.35.46-.79.03-.89-.22-3.13.23-3.68,3.66-2.45,7.24-5.03,10.86-7.52,7.22-4.97,14.44-9.95,21.61-14.94.68-.47,3.37-2.22,3.96-2.26.86-.06,3.2,1.06,4.25,1.39,1.65.53,3.31,1.23,5.06,1.38,4.23,1.35,8.72,1.91,13.19,1.87.62.2.35,1.76.38,2.39.02.44-.23.92.46.79-.04,4.59-.02,9.2,0,13.79,0,.99,0,1.99,0,2.99.02,2.56-.43,8.25.46,10.34.05.11,1.33,1.7,1.49,1.83,1.57,1.31,3.65,1.79,5.63,2.08h38.39c-.45,4.78-1.23,8.16,4.6,8.5,15.46.92,31.81-.69,47.36,0,.64-.05,2.73-.44,3.15-.76.5-.38,1.18-1.8,1.22-2.46.05-.83-.06-3.45-.24-4.2-.04-.17-.39-.15-.44-.33-.19-.77-.17-1.73-.44-2.5-.14-.39-.96-1.28-1.17-1.65-.55-.97.12-1.19-1.17-1.43-.05-.12.09-.38-.06-.63-.04-.06-.41-.23-.63-.52-.94-1.2-2.28-2.28-3.61-3.17-4.09-2.77-8.97-4.52-13.86-5.1l4.17-1.92c1.16-.7,2.13-1.72,2.96-2.67.99-1.13,1.04-1.27,1.63-2.58.07-.16.36-.15.42-.35.34-1.03.34-3.4.25-4.53-.17-2.14-1.18-2.83-2.25-4.41-.54-.8.3-.75-.97-1-.38-.53-.37-.36-.46-.46-.03-.03.04-.26-.08-.38s-.34-.05-.38-.08c-4.16-3.73-10.57-4.68-16.09-3.68-4.69.86-9.74,3.3-11.26,8.04-.9,2.82-.94,4.86.46,7.58.08.15.43.2.46.23.13.2.02.61-.34.45-.18-.08-.43-.49-.73-.66-4.67-2.61-8.77-6.26-13.42-9l-2.76-1.84c-.08-.06-.14-.16-.23-.23-.7-.58-1.5-1.19-2.3-1.61-3.07-2.6-7.45-4.58-10.18-7.11-.19-.17-.26-.38-.38-.59,3.18-2.32,6.7-4.58,9.32-7.55.74-.84,3.66-4.85,3.77-5.66l1.13-1.56c.64-1.33.79-3.3,1.61-4.34l.25-4.45c.15-.17.39-.17.46-.23l9.88-.23c.23.02.7.19,1.15.23s.92-.02,1.38,0c.53.02,1.07-.01,1.61,0,2.06.04,4.14,0,6.21,0,.54,0,1.07,0,1.61,0,1.84,0,3.68-.03,5.52,0,.53,0,1.08-.04,1.61,0,.15.01.32-.02.46,0,1.12.2.53.91.69,1.68.04.17.38.14.44.33,1.87,6.54,6.2,10.66,12.43,13.62,3.37,1.6,7.09,2.74,10.8,3.22.92.12,1.83.19,2.76.23,1.74.08,3.77.07,5.52,0,3.43-.14,6.41-.63,9.66-1.73.37-.13.81.04.68-.57,1.42-.08,3.4-1.14,4.95-2.06,4.57-2.73,7.68-5.89,9.77-10.57.81-1.81.54-2.06.92-3.75.04-.17.41-.14.45-.31.11-.47.1-3.31.02-3.88-.06-.43-.43-.3-.47-.49-.66-2.93-.25-2.91-1.84-5.59-3.93-6.58-12.13-10.47-19.54-11.95-4.15-.83-7.51-1.06-11.72-.69-5.68.5-10.92,1.95-15.7,5.1-4.29,2.83-8.27,7.56-9.12,12.37-.09.51-.15,1.08-.23,1.61-.01.07,0,.15,0,.23,0,.15,0,.31,0,.46-.06.03-.06.6-.92.69-1.3-.02-2.61.05-3.91,0-.04,0-.17-.21-.69-.23-1.68-.05-3.38.02-5.06,0-1.84-.02-3.68,0-5.52,0-4.53-.02-9.29-.18-13.79,0-.06-.23-.27-.2-.46-.23-.14-.75-.08-1.93-.24-2.6-.13-.52-.66-2.1-.91-2.92-.39-1.28-1.26-2.55-1.9-3.73-.46-.84.06-.75-.86-1.32-.27-.96-.25-1.27-1.15-1.61-.05-.1.1-.38-.06-.63-.06-.09-.36-.14-.49-.32-.22-.29,0-.83-.6-.66-4.05-7.75-19.6-13.53-27.82-14.94-2.59-.44-5.18-.81-7.82-.92-.09-.05-.56.09-.66-.02-.12-.13-.02-1.03-.03-1.36-.15-4.9-.59-11.34-.23-16.09,0-.03.17-.06.23-.46.03-.22-.05-.5,0-.69.1-.41.54-1.49.81-1.83.4-.51,2.41-1.24,2.4-1.39,8.88.06,17.78-.08,26.67,0,.03,0,.05.23.46.23.54,0,1.07,0,1.61,0,.08,0,.15,0,.23,0,.76,0,1.53,0,2.3,0,1.22.01,2.46,0,3.68,0,3.06,0,6.13,0,9.2,0,.82.44.66,1.97.94,2.81.06.19.35.2.42.36,3.54,8.24,10.83,12.79,19.33,15.22,12.18,3.49,27.64,1.65,36.78-7.12.08-.08.15-.15.23-.23,2.13-2.1,4.29-4.31,5.49-7.08,1.36-3.11,1.68-8.83.71-12.23-1.28-4.51-6.15-9.9-10.36-12.51-4.69-2.9-12.15-5.43-17.68-5.42-2.06.05-4.15-.07-6.21,0-3.04.1-6.04.49-8.97,1.38ZM41.15,26.66c-.07.08-.16.15-.23.23-1.01-.1-1.01.42-1.49.91-.45.46-.42.35-.81.93-1.19.84-2.15,2.63-2.31,4.24-.4,4.18-.35,12.57.01,16.78.1,1.18,1.04,2.88,1.83,3.8,2.26,2.63,6.03,3.93,9.43,4.14,8.97.54,18.49-.5,27.48,0,.43.02.84.11,1.25.24,1.66,1.47,13.19,7.52,15.58,8.44,1.05.4,2.25.95,3.04-.16v-8.27c.15-.14.48-.17.69-.23,1.07-.29,2.31-.24,3.45-.46,2.17-.41,5.15-1.64,6.73-3.21.48-.47,1.64-2.65,1.78-3.23.1-.43.21-.79.24-1.25.31-4.86.32-12.05,0-16.9-.08-1.21-.25-1.63-.91-2.58-2.58-3.71-7.28-5.21-11.62-5.46-15.43-.87-31.62.65-47.13-.01-1.7.11-5.9.85-7,2.08ZM50.57,199.93c-1.82.4-2.3,1.21-3.22,2.53-.02.02-.31-.07-.4.05-.13.17-.02.58-.19.86-.1.17-.46.15-.56.41-.15.39-.25,1.75-.24,2.23.05,1.8,1.21,3.42,2.53,4.49,3.5,2.85,9.6,3.22,13.32.56,1.3-.93,1.64-1.97,2.11-3.37.06-.19.39-.18.43-.34.06-.25.08-1.25-.02-1.41-.35-.57-8.48-.11-9.75-.27-.23.03-.26,0-.33.24-.12.36.08,1.16,0,1.61h6.21c.31.91-1.26,2.41-2.02,2.69-.57.22-1.39.05-1.89.52-1.63-.07-2.79-.04-4.37-.69-1.22-.5-1.63-1.28-2.3-2.36-.1-.16-.41-.15-.45-.33-.09-.42-.08-2.24-.02-2.73.05-.41.36-.31.46-.51.12-.24.09-.62.23-.81.47-.63,2.26-1.79,3-2,1.92-.55,3.88,0,5.75.46,1.32,1.41,3.31,1.92,5.05,1.04-.24-.91-.72-.9-1.14-1.27s-.88-.8-1.35-1.07c-3.02-1.73-7.65-2.07-10.84-.54ZM101.38,201.77c-2.67-4.24-12.8-3.59-15.4.92-1.64,2.85-1.18,6.66,1.84,8.27.13.07.25.25.46.23.05.09.16.15.23.23.57.69,2.88,1.25,3.82,1.35,3.5.37,7.45-.39,9.74-3.19,1.17-1.43,1.29-2.74,1.15-4.6-.1-1.39-.46-2.63-1.84-3.22ZM154.25,200.39c-1.87,1.05-2.49,1.85-3.24,3.73-.08.19-.4.18-.43.34-.1.41-.09,2.25-.03,2.72.05.4.37.3.46.51.8,2.01,1.35,2.9,3.47,3.96,3.31,1.66,8.47,1.56,11.69-.27.12-.07.01-.4.04-.42.3-.21.16.38.69-.46.31-.5.65-.78.92-1.15.14-.19.5-.45.12-.69-1.22.68-3.15-.43-4.03.92-.21.09-.21.22-.23.23-.52.19-.65.45-.69.46-2.03.63-4.17.47-6.21,0-.55-.54-1.91-1.4-2.22-1.91-.25-.42-.18-.92-.33-1.36-.06-.18-.4-.18-.43-.34-.08-.33-.08-1.41,0-1.74.04-.17.36-.17.44-.34.31-.66.74-1.15.94-1.66,1.65-1.73,4.22-1.65,6.44-1.61l2.07.69c.06.09.17.15.23.23.11.15.13.49.28.63.73.6,2.88.16,3.85.29.49-.48-1.68-2.59-2.3-2.53-.08-.07-.16-.15-.23-.23-.91-.97-3.24-1.31-4.6-1.38-2.71-.13-4.3.05-6.67,1.38ZM174.94,207.29c.78-.04,2.49-.14,3.08.25.44.29.4.76.68,1.05.83.89,1.81,1.69,2.68,2.55.53.52.15.67,1.15,1.2.26.14.28.36.81.45.94.15,3.1.24,2.18-1.14-.58-.86-3.81-3.39-3.87-4.07-.08-.76,1.46-1.08,2.26-1.68.21-.16.57-.21.7-.39.62-.86.66-3.67,0-4.52-.18-.23-.44-.12-.47-.15-.39-.34-.44-.41-.92-.69-1.07-.62-2.21-1.15-3.56-1.15h-7.59s-.34.32-.34.34v13.1c0,.48,3.08.52,3.35.13.28-.41.16-4.54-.13-5.3ZM214.71,200.85c-.02-1.93-1.25-1.98-2.87-1.83s-1,.4-1.51,1.2c-1.76,2.78-3.25,6.01-4.82,8.98-.43.81-1.38,1.86-1.55,2.86-.04.25-.08.49-.05.75.89-.1,2.34.25,3.09-.25.36-.24.27-.56.36-.67.67-.87.87-1.57,1.61-2.53l.92-.23c.3.02.61,0,.92,0s.49,0,.69,0c.46,0,.92,0,1.38,0,.19,0,.49,0,.69,0,.23,0,.46.02.69,0,.54.49,1.33.09,2.01.3.47.14,1.52,3.04,1.95,3.22.87.37,2.48.17,3.39-.08.08-.36-.31-.12-.45-.4-1.71-3.36-3.4-6.7-5.3-9.94-.3-.52-.95-1.13-1.15-1.38ZM248.04,201.31s-.25-.07-.4.06c-1.6,1.52-2.45,4.5-1.66,6.66.08.22.38.19.51.46.15.3.29,1.18.43,1.29.17.13.51-.02.65.03.04.17-.11.49.04.64.08.09.45.05.62.19,3.89,3.13,10.61,2.92,14.28-.6.03-.03-.08-.29.05-.41.12-.11.49.03.66-.19.2-.26.3-1.12.46-1.52.07-.17.36-.15.43-.35.18-.56.14-2.77.01-3.35,0-.04-.27-.17-.46-.62-2.27-5.59-11.36-5.87-15.63-2.3ZM76.32,199.25h-7.82v13.33c.81-.13,2.44.29,2.99-.23.35-.33.33-.56,0-.92,0-.76-.03-1.54,0-2.3.28-.23.28-.46,0-.69.01-.15-.03-.33,0-.46.02-.08.3-.68.38-.7.44-.12,2.24-.02,2.68.23.65.38,2.29,2.83,2.92,3.51.64.44.89,1.11,1.61,1.33,1.11.34,2.04.23,3.22.23.13-.41-.21-.42-.23-.46-.08-.24-.06-.53-.22-.75l-3.69-3.73c-.2-.82.73-.58,1.36-.94.31-.17,1.51-.97,1.65-1.17s.11-.56.23-.81c.08-.17.4-.17.44-.34.08-.34.08-1.63,0-1.97-.04-.17-.35-.17-.44-.34-.12-.24-.09-.62-.23-.81-.99-1.31-3.22-2.02-4.84-2ZM107.13,199.48v8.34c.79.36.32,1.25.74,2.07.1.19,1,1.07,1.33,1.07.07.08.15.15.23.23.93.95,1.14.83,2.3,1.15,2.42.67,4.58.69,6.95-.29.2-.08,1.66-.85,1.73-.93.1-.12,0-.44.12-.56s.44-.02.56-.12c.46-.42.42-1.59.54-2.08.05-.2.41-.07.47-.49.34-2.59-.29-5.95-.02-8.64-.23,0-.46,0-.69,0-.53-.02-2.4-.16-2.53.23.05,2.68-.07,5.37,0,8.04l-1.09,2.31c-1.45.68-2.39,1.01-4.03.86-.38-.04-.75-.32-1.09-.4-1.37-.5-1.38-.94-1.86-2.12-.07-.17-.39-.18-.43-.34-.4-1.74.09-5.78,0-7.88,0-.15,0-.31,0-.46-.77-.38-2.4-.39-3.22,0ZM128.73,199.25c-.84.08-2.2.47-2.3,1.38-.4,3.71.27,8.13.03,11.92.19.31,2.8.45,3.09.05.38-.54-.07-3.93.1-4.84.31,0,.8-.22,1.25-.24,2.75-.09,7.82.28,8.86-2.98.26-.82.36-1.44.13-2.32-.02-.09-1.06-1.44-1.13-1.51-.92-.89-3.03-1.36-4.29-1.45-.15-.01-.31,0-.46,0-1.55-.08-3.78-.14-5.29,0ZM200.23,199.25c-2.15-.22-7.92-.28-10.01-.01-.2.03-1.25.4-1.25.47v12.64c0,.07,1.06.45,1.25.47,1.79.23,7.87.22,9.64-.03,1.16-.17,1.94-1.15,1.06-2.05-.22-.23-.23-.21-.55-.24-2.39-.27-5.28.22-7.72.01v-3.45c2.17-.14,4.56.3,6.67-.23.46-.15.15-1.41.23-1.84h-6.9c-.25-.76.18-2.74,0-3.68h8.16c.24,0,1.08-1.9-.57-2.07ZM221.15,199.48c-.41.21-.39,1.63.15,1.81,1.01.33,3.28-.17,4.45.03.03.02.51.17.69.23v10.8c0,.17.08.2.23.23.63.12,2.49.08,2.99-.23.05-.03.16,0,.16-.1l-.16-.13c-.11-3.43.15-6.91,0-10.34.09-.4.6-.39.69-.46,1.34-.09,2.82.13,4.14,0,.31-.03.46.11.69-.23s.21-1.26,0-1.61c-.24-.4-.77-.21-1.15-.23-3.13-.16-9.25-.39-12.18,0l-.69.23ZM238.62,199.48c-.55.55-.16,11.5-.1,13.13.66.22,3.06.51,3.28-.17-.02-3.7.14-7.42.03-11.11-.01-.48.15-1.71-.22-1.97-.32-.23-2.67-.21-3,.13ZM271.26,199.71c-1.02-.74-1.8-.41-2.99-.46v13.21c0,.62,2.46-.12,2.99.12v-8.5c.12-.01.24-.48.34-.46.96.15,1.36,1.35,1.81,1.76.26.24.69.32.9.53,2.01,1.9,4.54,5.05,6.84,6.44.06.03.09.34.38.42.59.17,2.45.16,2.6-.59.16-.79.14-4.61.03-5.48-.06-.44-.59-.13-.5-1.38.06-.76.44-.44.5-.88.07-.52.08-4.51-.07-4.68-.09-.11-.38-.01-.41-.04-.03-.03.1-.4-.15-.46-.27-.07-1.71-.06-2.03,0-.66.12-.52.4-.57.92-.26,2.47.32,5.52,0,7.93-.14,1.07-1.54-.83-1.78-1.05-.73-.67-1.8-1.46-2.51-2.14-1.74-1.66-3.42-3.8-5.36-5.21Z"/>
  <path class="cls-10" d="M248.04,20.22c5.54-.01,13,2.52,17.68,5.42,4.21,2.6,9.08,8,10.36,12.51-.67-.19-.53.73-.48,1.05.08.44.43.31.47.49.79,3.51-.06,6.72-1.12,9.68-.77,2.15-1.97,4.42-3.47,6.14-.5.57-1.62.98-1.61,1.95-.08.08-.15.15-.23.23-.9.04-1.11.85-1.62,1.25-8.8,7.03-23.4,8.55-34.07,5.81-.34-.09-.87-.38-1.1.07-8.49-2.43-15.79-6.98-19.33-15.22-.07-.16-.36-.17-.42-.36-.28-.84-.12-2.37-.94-2.81-.35-.19-.33-.2-.78-.24-2.14-.19-4.94-.01-7.15.01-.39,0-1.02-.15-1.26.23-1.22,0-2.46.01-3.68,0,.13-.7-.35-.44-.79-.46-10.1-.4-20.46.3-30.58,0-.28,0,.11.2.11.23,0,.15-2,.88-2.4,1.39-.27.34-.71,1.42-.81,1.83-.74-.06-.64-.11-.69.56-.34,4.32-.34,11.79,0,16.11.06.71-.11.59.69.56,0,.32-.08,1.22.03,1.36.1.11.56-.03.66.02.02.01-.09.4.15.46.45.12,1.24-.06,1.8,0,1.56.16,3.12.44,4.67.62.37.04.96.26,1.19-.16,8.21,1.41,23.77,7.19,27.82,14.94.32.6.33,1.3,1.15,1.61.49,1.07.06.93,1.15,1.61.92.57.4.48.86,1.32.64,1.18,1.52,2.46,1.9,3.73-1.26.07-.02,1.3.02,1.48.31,1.24.42,2.75.44,4.04.22.02.47-.03.69,0,.19.03.4,0,.46.23-.17,0-.71-.07-.34.23,4.29-.05,8.59.06,12.88,0,.39,0,1.02.15,1.26-.23,1.84,0,3.68-.02,5.52,0-.13.69.35.44.79.46,3.21.11,6.45-.08,9.66,0,.4-.37-.68-.23-.8-.23.86-.08.86-.66.92-.69.11-.07.63.15.7-.12.11-.4.17-2.57-.47-2.17.85-4.81,4.83-9.54,9.12-12.37,4.78-3.15,10.03-4.6,15.7-5.1l11.72.69c7.41,1.48,15.61,5.37,19.54,11.95-.57.67.56,1.75.67,2.02.38.9.86,2.41.93,3.39.13,1.77.12,5.14-.23,6.84-.02.1-1.26,1.11-.45,1.77-2.09,4.69-5.19,7.84-9.77,10.57-1.54.92-3.52,1.99-4.95,2.06-1.59.09-4.08,1.24-5.93,1.54-1.41.23-3.05.44-4.42.53-1.79.11-3.8-.28-5.52.23-.93-.04-1.84-.11-2.76-.23l-10.8-3.22c-6.23-2.96-10.56-7.08-12.43-13.62-.06-.19-.4-.16-.44-.33-.17-.77.43-1.48-.69-1.68l-.32-.21-.14.21c-.53-.04-1.08,0-1.61,0-1.65-.38-3.87-.38-5.52,0-.54,0-1.07,0-1.61,0-1.5-.41-3.36-.25-4.95-.23-.39,0-1.02-.15-1.26.23-.54-.01-1.07.02-1.61,0,.33-.68-1.63-.76-1.38,0-.45-.04-.92-.21-1.15-.23-.03,0-.22-.2-.55-.24-.91-.12-8.94-.24-9.3.06-.11.09,0,.39-.04.41-.07.06-.31.06-.46.23-.09.1-.18.08-.23.34-.18,1-.27,1.74-.46,2.76-.53,2.79-2.03,5.26-2.3,7.24-.11.81-3.03,4.82-3.77,5.66-2.62,2.97-6.14,5.23-9.32,7.55.12.21.2.42.38.59,2.72,2.54,7.11,4.51,10.18,7.11.1.08.81.95,1.2,1.22.33.23.67.42,1.1.39.09.07.15.17.23.23,1.04.82,1.44,1.06,2.76,1.84,4.64,2.74,8.75,6.38,13.42,9,.29.16.55.58.73.66.36.15.47-.25.34-.45-.02-.04-.38-.09-.46-.23,1.2-.03.02-.79-.04-1-.22-.75-.22-1.57-.42-2.33v-4.25c1.52-4.75,6.57-7.19,11.26-8.04h5.87c2.84.2,7.99,1.89,10.22,3.68.03.02.25.28.46.46.12.11-.32.31.46.46,1.78,2.5,1.83,2.86,2.53,5.82.05.19.41.06.47.49.21,1.43-.42,1.46-.47,1.67-.32,1.32-.21,2.25-.94,3.57-.1.18-1.16.88-.68,1.32-.83.95-1.8,1.97-2.96,2.67l-4.17,1.92c4.89.58,9.77,2.33,13.86,5.1,1.32.9,2.66,1.98,3.61,3.17l-.22.11c.47.63.15.89.91,1.04.5,1.32,1.93,3.06,2.28,4.31s.22,3.1.48,4.26c.04.17.4.13.45.32.09.37-.17.99.24,1.22-.04.66-.72,2.09-1.22,2.46-.42.32-2.51.7-3.15.76h-47.36c-5.82-.35-5.04-3.73-4.6-8.5h-38.39c-1.98-.29-4.06-.76-5.63-2.08-.16-.14-1.45-1.72-1.49-1.83,1.19-.03,0-.75-.02-1.02-.26-2.6.11-5.82.02-8.53-.01-.44.23-.92-.46-.79,0-.99,0-1.99,0-2.99.38-.24.23-.87.23-1.26.05-5.13-.05-10.27,0-15.4-.33-.37-.23.26-.23.45-.02.8,0,1.62,0,2.42-.69.13-.44-.35-.46-.79-.02-.63.24-2.19-.38-2.39-4.47.04-8.96-.52-13.19-1.87-1.24-.4-2.68-1.07-3.96-1.45-.33-.1-.88-.37-1.1.07-1.05-.33-3.39-1.45-4.25-1.39-.59.04-3.28,1.79-3.96,2.26-7.17,4.99-14.39,9.96-21.61,14.94-3.63,2.5-7.21,5.07-10.86,7.52-.45.55-.2,2.79-.23,3.68-.01.44.23.92-.46.79.05-1.37-.04-2.76,0-4.14-.4-.05-.22.52-.23.8-.06,1.39-.15,3.17.23,4.48-.12,1.77-.53,2.92-1.17,4.42-.1.23-.7.16-.44,1.16.02.08.99,1.01,1.07,1.15.1.17.05.34.07.38-.43-.04-.65-.06-.31.46.14.21,1.38,2.29,1.41,2.46.67,3.55-1.65,2.59-4.09,3.29-2.56-.39-5.58-2.12-7.93-2.3-1.79-.14-4.1.59-5.97.7-5.45.32-12.57-.63-17.36-3.35-.25-.14-.21-.55-.23-.56l-.11-.23-.11.23c-.11-.07-.28-.11-.46-.23l-1.02-1.06-1.51-.78c-.61-.5-1.42-1.01-1.99-1.7-.1-.13-.04-.46-.13-.54-.18-.15-.55,0-.64-.05-.06-.04.24-.42.23-.46l-.62-1.55c-.84-.96-1.4-2.36-1.61-3.68l.17-4.88c1.69-5.56,8.25-9.85,13.8-11.6,1.81-.57,2.64-.39,4.22-.57.08,0,.05-.41,1.29-.47,1.72.44,3.72.2,5.52.23.08,0,.15,0,.23,0l9.43,2.53c2.83,1.45,6.41,3.99,7.8,6.84.17.34.29,1.83.79,1.64l33.82-23.18c.43-.66-.88-.83-1.25-1.06-3.29-2.13-7.28-5.33-9.68-8.36,1.28-.12-.04-.58-.11-.69-.72-1.17-.84-1.72-1.96-2.76-1.67-1.56-3.54-6.85-3.68-9.19.13-.02.43.04.46,0,.07-.1.06-2.23.02-2.41-.08-.28-.59-.06-.7-.12-.03-.02.11-.55-.33-.48-9.24.1-18.48-.06-27.72.02.12-.87.98-1.2,1.61-1.61.23,0,.46,0,.69,0-.06.6.15,1.03.8.92.16-.03.08-.85.58-.92.23,0,.46,0,.69,0l.18.16.28-.16c.76,0,1.53,0,2.3,0l2.41.92.35-.92c.31,0,.61,0,.92,0-.12.76.36.39.78.42.88.06,2,.29,2.82.24.55-.03.76-.01.78-.66,2.9,0,10.66.49,12.87-.23.05-.02.14-.17.23-.23.07-.05.44.15.47-.14-.12-1.33.7-2.96.22-4.22,1.99-7.8,9.35-14.97,16.63-18.88,4.86-2.61,9.91-4.24,15.32-5.25l9.65-.69c.09-.19-.41-.45-.46-.46.17-.03.65.05.69,0,.1-.11,0-2.51,0-2.99.7.13.44-.35.46-.79.18-4.47.15-9.56,0-14.04-.01-.44.23-.92-.46-.79.08-1.18.32-.77.44-1.1.66-1.75,1.03-2.4,2.8-3.37,1.24-.68,2.35-.96,3.77-1.06,6.29-.47,13.92-.03,20.35,0-.13.69.35.44.79.46,7.34.25,14.73-.18,22.08,0,.36-.3-.17-.22-.34-.23.14-.11.33-.41.46-.46.18-.07.63.16.7-.13.09-.35,0-1.58-.01-2.07-.02-.44.23-.92-.46-.79.1-1.29.37-1.02.45-1.31.61-2.21.79-3.51,2.01-5.52,3.28-5.39,11.93-11.23,18.23-12.24,2.73-.44,6.09-1,8.97-1.15,1.99-.11,4.3-.22,6.21-.23ZM267.68,31.16c-12.31-12.22-37.41-11.66-48.4,2.02-2.29,2.85-2.5,3.64-3.43,7.1-.05.2-.41.07-.47.49-.11.87-.11,3.76,0,4.63.05.42.41.29.47.49.78,2.93.95,4.27,2.77,6.79l4.13,4.31c.58-1.76,2.51-3.97,4.06-5.24,3.12-2.56,7.4-3.71,11.29-4.58.43-.1,2.03-.03.88-.54-.67-.3-1.48-.4-2.21-.77-5.57-2.82-6.75-9.27-1.88-13.45s14.41-4.13,19.4-.23c2.06,1.6,3.29,5.37,2.71,7.89-.04.18-.44.14-.43.25.02.23.27.51.22.9-.02.17-.4.16-.47.31-.84,1.64-1.5,2.26-2.9,3.49l-4.22,1.87c1.44.35,2.95.58,4.36,1.04,4.46,1.44,10.32,5.07,11.72,9.66.05.17-.1.5.34.33.28-.11,2.08-1.88,2.42-2.24,7.24-7.89,7.15-17.05-.36-24.51ZM251.4,33.87c-4.1-2.95-10.24-2.92-14.16.27-.16.13-1.55,1.56-1.6,1.66-1.18,2.45-.31,5.88,1.87,7.47,4.23,3.06,12.08,2.65,15.35-1.62,1.93-2.53,1.02-5.99-1.47-7.78ZM258.93,53.93c-1.2-1-1.89-1.68-3.41-2.45-8.82-4.5-25.61-3.52-30.01,6.5-.08.18-.77.17-.45.62.01.02.26-.03.45.17,1.03,1.09,2.72,1.86,4.15,2.47,8.9,3.78,20.52,4,29.47.28,1.47-.61,3.84-1.3,3.39-3.22-.04-.17-.37-.17-.43-.34-.87-2.38-1.27-2.47-3.16-4.04ZM171.72,70.78c-9.7-2.36-23.1.31-32.13,4.31l.17.28c-4.64,2.2-10.4,6.53-13.33,10.74-1.43,2.05-3.63,6.43-4.14,8.72-.11.51.24,1.29-.24,1.68-.02-.47.27-1.34-.46-1.15.2,1.05-.19,2.15-.23,3.1-.05,1.23-.02,4.12.23,5.24.04.16.39.14.44.33.53,2.21.55,2.77,1.61,4.83.35.68-.07,1.4,1.17,1.43,1.49,2.67,4.16,5.84,6.51,7.96.58.52,1.58,1.16,2.22,1.69,1.35-4.04,4.37-7.86,8.07-10.21,2.78-1.76,5.88-2.81,8.95-3.92.93-.57,7.4-1.38,7.58-1.73.24-.44-.07-.38-.33-.48-1.61-.62-3.42-.95-5-1.84-.78-.44-1.46-1.63-2.49-1.59-.08-.07-.15-.15-.23-.23.25-1.07-.57-.56-.69-.69-.04-.04.1-.41-.05-.63-.08-.11-.41-.17-.61-.43-2.01-2.66-2.45-5.85-1.45-9.2.06-.21,1.24-.97.04-1,1.71-3.65,7.17-6.7,11.03-7.58l1.19.16,4.55-.62c.15,0,.31-.01.46,0,.03.1-.04.43,0,.46.11.08,2.35.25,2.53,0,4.88,1.06,9.03,3.27,11.49,7.58-.71.61.4,1.65.44,1.79.36,1.25.41,4.4,0,5.62-.06.19-1.27,1.41-.67,2.02-1.66,2.53-3.85,4.2-6.62,5.45l-3.26,1.21c4.53.77,9.02,2.1,13.07,4.28,3.07,1.66,5.84,3.79,8.08,6.29-.38.04.16.88.23.98.71.99,1.7,1.9,2.14,2.98.3.73-.2,1.29.85,1.1.68-.12,1.5-1.4,2.01-1.85,3.19-2.78,5.95-5.99,7.64-9.87,1.04.25.71-.84.94-1.43.39-.99.63-1.48.9-2.71.42-1.94.63-3.88.46-6.1-.06-.71.11-.59-.69-.56-.55-7.63-7.13-15.48-13.67-19.54-5.82-3.61-12.23-5.31-18.74-6.89ZM265.51,79.97c-.67-.38-1.89-.29-2.65-.24-1.5.09-3.49.42-4.94.82-.38.11-.82-.04-.69.57-4.41,1.16-10.83,4.31-13.48,8.12-.79,1.14-.52,1.49-1.7,2.45-.61.5-.93,1.9-1.17,2.58-.05.15-.39.16-.43.34-.29,1.26-.33,3.7-.25,5.02.1,1.47.5,2.08.93,3.32.48,1.4.97,3.27,2.3,4.14,1.09.71,1.13,1.4,1.91,2.22,1.28,1.34,3.51,2.35,4.75,3.75,3.48,3.91,16.91,5.08,22.2,4.14.43-.08.92.26.79-.46,4.07-.6,6.04-1.53,9.66-3.22.06-.03.79-.02,1.19-.24.43-.23,1.65-1.31,1.79-1.6.17-.1.5-.08.84-.31,1.29-.85,5.04-5.6,5.58-6.99.34-.88.25-2.29.49-3.1.07-.24.38,0,.45-.62.09-.79.16-4.53.01-5.15-.06-.27-.41-.08-.47-.13-.47-.35-.31-1.39-.48-1.89-2.66-7.94-13.71-12.38-21.59-13.28-.02-.13.04-.43,0-.46-.12-.09-2.72-.1-2.99.23-.68-.02-1.38-.01-2.07,0ZM173.25,85.57c-7.4-6.45-24.79-3.25-23.83,8.08.15,1.73,2.17,4.5,3.59,5.59,6.97,5.34,19.1,4.17,23.09-3.91.08-.17.36-.16.42-.36.6-1.81.19-4.41-.6-5.98-.35-.7-2.02-2.85-2.68-3.42ZM156.09,106.86c-7.35,1.21-16.23,5.83-18.87,12.92-.06.16-.4.17-.43.34-.06.27-.07,1.72.03,1.87.15.24,4.5,2.3,5.13,2.57,9.6,4.11,21.14,4.87,31.39,3.1,5.67-.98,10.94-3.12,16.03-5.69.46-.39.26-1.99.04-2.52-.09-.22-.37-.22-.44-.34-4.19-8.15-13.7-11.66-22.53-12.48.13-.7-.35-.44-.79-.46-3.13-.12-6.52-.13-9.55.69ZM187.81,125.71l-14.25,4.37c-.52.09-1.08.16-1.61.23-.23-.37-.89-.27-1.26-.23-.8.08-5.32.45-5.53.69-.18.16.13.22.13.23-.02,2.18.09,4.38,0,6.56-.02.44.24.92-.46.79,0-2.02.08-4.07,0-6.09-.01-.28.17-.85-.23-.8v20.91c.4.05.22-.52.23-.8.07-1.79,0-3.61,0-5.4.69-.13.45.35.46.79.14,4.19-.15,8.4.05,12.6.3,1.63,3.27,3.15,4.77,3.39-1.21.05.33.58.92,0,.23.02.46-.01.69,0,.24.38.87.23,1.26.23,11.73.12,23.47-.11,35.2.01.29.1.44-.19.55-.24.83-.41.84-1.56,1.24-2.21,2.07-3.38,7.59-6.47,11.29-7.9l5.86-1.83c-1.54-.23-3.03-.96-4.34-1.75-5.06-3.04-10.34-7.31-15.26-10.71-1.09-.75-3.65-1.89-4.3-2.94-.04-.06.08-.35-.02-.44-.13-.12-.51.03-.67-.02-.07-.02-.16-.16-.23-.23-.03-.03.09-.28-.06-.41-.09-.08-1.13-.61-1.32-.51-.08-.08-.16-.15-.23-.23-.03-.04.08-.3-.04-.41-.17-.16-.83-.15-1.11-.28-.08-.07-.15-.18-.23-.23-.23-.15-.41-.29-.69-.46-.66-.41-1.41-.7-2.14-1.19-2.06-1.38-5.21-4.24-7.2-5.21-.52-.25-.89-.31-1.46-.26ZM247.28,134.74c-5.08-5.77-18.25-5.75-22.91.56-.87,1.17-.84,1.79-1.17,3.1-.05.19-.4.17-.44.33-.08.32-.08,1.66,0,1.98.04.17.39.13.44.32.35,1.26.52,2.48,1.24,3.66,1.41,2.29,7.33,4.38,9.94,4.65,5.61.56,12.36-1.76,14.13-7.38.06-.18.39-.18.43-.34.47-2.01-.36-5.4-1.68-6.89ZM203.79,135.59v.23c.15-.08.15-.15,0-.23ZM98.39,148.23c-4.8-13.15-26.47-12.34-34.48-2.59-1.08,1.31-2.6,4.51-2.76,6.03l-.46-.57v3.56s.46-.69.46-.69c.08.78.55,1.42.67,1.79,1.04,3.01,2.74,4.55,5.31,6.49,4.49,3.39,11.61,4.25,17.14,3.92,2.58-.16,4.37-.97,7.05-.41,1.04.22,2.25.76,3.28,1.09.3.1.84.43,1.04,0,1.23.38,4.47,1.91,3.9-.53-.02-.08-.58-1.14-.69-1.37-.43-.83-1.44-1.51-1.57-2.61-.25-2.07.27-2.37.89-4,.99.75.72-.63.94-1.2,1.1-2.84,1.14-5.59-.01-8.39-.24-.59.46-.96-.7-.52ZM260.46,171.44c.16-.1,1.12-1.23,1.14-1.31.09-.39.09-2.75,0-3.12-.04-.17-.39-.13-.44-.32-.71-2.54-.87-3.74-2.77-5.86-10.03-11.25-39.06-11.7-46.46,2.63-.92,1.79-1.16,4.14-.9,6.28.11.92.53,1.02.92,1.72.17.31.27.21.56.24,14.87-.14,29.75.15,44.62,0,.39,0,1.02.15,1.26-.23.38,0,.77,0,1.15,0,.43.43.56.22.92,0Z"/>
  <path class="cls-3" d="M70.11,75.61c3.84.49,7.75,2.16,10.34,5.06-.29.05.2,1.13.24,1.2.88,1.5,1.42,1.69,1.6,3.86.06.72.07,1.82,0,2.53-.05.54-.39,1.37-.42,1.98l-1.82,2.79.17.28c-1.85,1.82-3.86,2.73-6.21,3.79,1.29.38,2.77.51,4.14.57-.13.7.35.44.79.46,3.43.14,7.02,0,10.47,0-.12,1.65,2,.72.69,0,.76,0,1.53,0,2.3,0-.63.4-1.49.74-1.61,1.61-.31,0-.61,0-.92,0,.23-.75-1.44-.68-1.15,0-1.52.02-2.67.03-4.14.23-.32.04-1.15-.21-1.15.23,2.09.99,4.52,2.46,6.28,3.94,2.14,1.79,4.44,5.76,4.98,8.24-.69-.13-.44.35-.46.79-.04,1.02.14,2.44-.25,3.39-.2.49-1.69,1.65-2.28,1.79-.52.13-1.39.21-1.94.24-8.66.52-18.2-.13-26.94-.15-6.58-.01-13.86.74-20.31-.32-1.83-.78-2.36-2.09-2.31-4.03.04-1.54,1.06-4.59,1.85-5.91.09-.15.98-.62.46-1.08,1.24-1.72,1.77-2.32,3.45-3.68.09.32,1.21-.49,1.28-.54.4-.3.85-.89,1.39-1.06l-.14-.23c3.54-2.17,7.57-3.73,11.72-4.14.1-.52-.02-.37-.29-.51-2.95-1.6-5.6-2.48-7.29-5.69,1.21-.09.04-.54,0-.63-.08-.24-.47-1.69-.47-1.79v-3.68c0-.1.41-1.87.46-1.95.44-.81,1.17-1.17,1.61-2.53.34-.23.77-.53,1.15-.69.07-.33-.15-.22-.46-.23.78-.66,1.64-1.33,2.53-1.84.24.49.7.09.99-.04,2.05-.94,4.24-1.78,6.51-2,1.68-.16,3.55.25,5.14-.26ZM76.93,81.2c-4.12-3.85-12.52-3.89-17.28-1.23-2.48,1.39-3.54,2.99-4.27,5.58-.05.19-.4.16-.44.33-.08.34-.08,2.09,0,2.44.04.16.38.16.43.34,1.09,3.56,3.29,5.16,6.88,6.41,5.91,2.07,14.5.34,16.84-5.95.06-.16.4-.17.43-.34.09-.39.09-2.96,0-3.35-.04-.16-.37-.16-.43-.34-.42-1.33-1.09-2.88-2.16-3.88ZM88.73,107.32c-3.91-4.97-13.02-8.1-19.2-8.5-9.21-.59-22.58,3.46-25.84,12.82-.38,1.1-.75,4.36.68,4.75,15.34.19,30.8.26,46.14-.04.15-.07.68-.63.74-.75.61.44.44.19.46-.34.12-3.05-.49-4.53-1.83-7.07l-1.15-.86Z"/>
  <path class="cls-10" d="M41.15,26.66c2.24-.63,4.17-1.46,6.54-1.62,15.65-1.07,32.51.82,48.28.01,2.11.15,7.05,1.36,8.55,2.81.33.32,2.29,2.91,2.41,3.24.17.46.08,1.01.2,1.36.09.26.44.14.45.16.45.7.21,15.16.02,16.68-.02.14-1.29,1.42-.02,1.48-.14.58-1.3,2.75-1.78,3.23-1.58,1.57-4.56,2.79-6.73,3.21-.66-.48-1.84-.1-2.64.01-.43.06-.93-.29-.8.45-.21.06-.54.09-.69.23-.24.22-.21.23-.24.55-.19,1.86-.01,4.51,0,6.46,0,.39-.15,1.02.23,1.26-.78,1.11-1.99.56-3.04.16-2.39-.92-13.93-6.97-15.58-8.44-.04-.04.13-.43-.13-.47-9.11.1-18.23-.09-27.34,0-.39,0-1.02-.15-1.26.23-3.39-.2-7.17-1.51-9.43-4.14,1.23-.1.03-.55,0-.62-.37-.76-1.08-1.97-1.14-2.72-.42-4.58-.35-12.84-.01-17.47.08-1.08.98-3.08,1.62-4.01.94-.67,1.59-1.09,2.3-1.84.07-.08.16-.15.23-.23ZM47.82,27.12c-.27.29-.58.22-.92.23l-.92-.23c.03.11.23.19.23.23.01.11,0,.18-.12.23-.97,0-1.81.5-2.64.92-1.15.58-1.35,1.01-2.07,1.61-.43.36-.86.88-.92.92-.25.16-1.38-.33-.23.92-.19.77-.4.36-.46.46-.11-1.34-.55.8,0,1.38-.01.38,0,.77,0,1.15-.39.58-.38,1.99,0,2.53,0,.23,0,.46,0,.69-.38.24-.23.87-.23,1.26-.02,1.99-.02,3.99,0,5.98,0,.39-.15,1.02.23,1.26,0,.23,0,.46,0,.69-.44.56-.25,3.84,0,4.14.11.13.42-.23.46-.23.17,0,1.67,2.05,2.26,2.45,1.08.72,3.11,1.33,4.41,1.46.23.02.46-.02.69,0v.23c-.14,0-.96-.11-.57.23h28.51c.3-.06.93.19,1.03-.23h.75c.17.06.18.36.36.44,4.71,2.08,9.11,5.09,13.72,7.38.48.05.3-.03.35-.34.18-1.25-.33-2.85.23-4.03-.04,1.41.03,2.84,0,4.25h.46c-.05-1.76.07-3.54,0-5.3-.02-.44.24-.92-.46-.79.16-.66,2.06-1.59,2.75-1.73,2.82-.61,7.28-.48,9.09-3.56.32-.54-.21-1.01.58-.91.04,0,.05.29.23.23.52-6.2.09-12.49.23-18.73-.34-.39-.23.43-.23.57-.39-1.25-.89-2.12-1.84-2.99-1.82-1.67-3.84-2.23-6.21-2.76h-48.74Z"/>
  <path class="cls-1" d="M248.04,201.31c4.27-3.57,13.36-3.29,15.63,2.3-.43.77.03,1.73.01,2.65,0,.36-.19,1.76-.29,2.03-.11.29-.45.3-.56.46-.15.22-.63,1.15-.77,1.3-2.89,2.95-9.94,3.02-13.28.75-.57-.39-.42-.7-1.2-.98-.28-1.06-.74-.94-.88-1.3-.48-1.33-.39-4.34.21-5.64.17-.37,1.19-1.13,1.13-1.56ZM249.19,207.75c.05.07.61.74.68.81,2.26,2.33,5.93,2.85,8.8,1.25.07-.04,1.28-1.01,1.33-1.08.76-1.03,1.19-3.03.9-4.26-.04-.17-.35-.17-.43-.34-.42-.85-.7-1.46-1.59-2.04-2.3-1.5-6.63-1.37-8.6.6-.46.46-.44.77-1.09,1.39-.14.13-.67.58-.68.62-.26,1.22-.05,2.15.68,3.05Z"/>
  <path class="cls-10" d="M76.32,199.25c1.62-.02,3.85.7,4.84,2,.14.19.12.56.23.81.08.17.4.17.44.34.08.34.08,1.63,0,1.97-.04.17-.35.17-.44.34-.12.25-.09.61-.23.81s-1.34,1-1.65,1.17c-.63.36-1.56.12-1.36.94l3.69,3.73c.16.22.13.51.22.75-.78.51-2.04.11-2.99.23-.72-.22-.97-.89-1.61-1.33-.64-.67-2.27-3.13-2.92-3.51-.44-.25-2.24-.35-2.68-.23-.07.02-.36.62-.38.7l-.46-.34v4.71s-2.07,0-2.07,0v-12.87c2.19-.02,4.39.02,6.58.02.42,0,.74-.25.78-.25ZM71.72,201.08c.13.29-.21.59-.23.69-.53-.59-.45-.06-.46.34-.01.45-.07,2.74.03,2.86.07.09.39-.02.43.02.24.21.2.43.23.46.36.36,3.08.3,3.8.24.68-.05,1.12-.12,1.72-.47.75-.44.65-.9.93-1.43.14-.27.6-.08.45-.73-.91-.99-1.26-1.79-2.76-1.97l.12-.23c-1.36.14-2.98-.3-4.26.23Z"/>
  <path class="cls-10" d="M50.57,199.93c3.09-.68,6.38-.99,9.54.23,1.05.4,1.69,1.12,2.64,1.61l.23.92c-1.82.35-2.47-.3-3.91-.92-2.15-.93-3.69-1.3-6.13-.72l.15.26c-.74.21-2.53,1.37-3,2-.14.19-.12.56-.23.81-.1.2-.41.1-.46.51-.06.48-.07,2.31.02,2.73.04.18.36.17.45.33.67,1.08,1.08,1.85,2.3,2.36l-.15.26c1.64.84,3.43.66,5.21.65.06-.39-.43-.22-.69-.23.5-.47,1.32-.3,1.89-.52.76-.29,2.32-1.78,2.02-2.7-.11-.34-.31-.21-.56-.24-1.53-.19-3.56.25-5.05.01-.29-.04-.07-.88-.13-1.15h8.97c.02.66.03,1.35-.19,1.98-.41,1.13-2.1,2.82-3.09,3.37-2.84,1.6-9.49,1.21-11.89-1.21-.18-.18-1.54-2.12-1.59-2.25-.33-.8-.3-2.47-.22-3.35l.66-2.21c.92-1.32,1.4-2.13,3.22-2.53Z"/>
  <path class="cls-10" d="M183.22,200.16c.48.28.53.35.92.69l.71,2.41c0,1.33-.6,1.43-1.14,2.39l.2.25c-.8.6-2.34.91-2.26,1.68.07.68,3.3,3.2,3.87,4.07v.69s-2.99,0-2.99,0c-1-.53-.62-.68-1.15-1.2-.86-.86-1.85-1.67-2.68-2.55-.28-.29-.24-.76-.68-1.05-.59-.39-2.3-.29-3.08-.25-.15,0-.31-.01-.46,0v5.06s-2.3,0-2.3,0v-12.87h7.25s3.79.69,3.79.69ZM175.17,201.08c-.05,0-.14.19-.23.23-.08.04-.3-.07-.43.02l-.04,3.75c.04.28.4.09.47.14.09.06.18.21.23.23,1.6.52,4.24.32,5.89-.2l-.14-.26c.31-.19.79-.91.92-.92.05,0,.4.44.46.11v-1.72c-.2-.07-.39.22-.46.23-.09,0-.57-1.04-1.15-1.38-.49-.29-.38.02-.46,0-.25-.05-.43-.23-.46-.23-1.34-.39-3.28-.38-4.6,0Z"/>
  <path class="cls-3" d="M271.26,204.07c-.05,0-.27-.3-.46-.23v8.5s-2.3,0-2.3,0v-12.87c.63.1,1.58-.15,2.14,0,.22.06.1.82.61.23,1.94,1.41,3.63,3.55,5.36,5.21.71.68,1.78,1.47,2.51,2.14.24.22,1.64,2.11,1.78,1.05.32-2.41-.26-5.46,0-7.93.52.16.45.59.47,1.02.08,1.47-.33,4.86-.03,5.96.06.23,1.06.21,1.41.7.52.73-.27,2.01.67,1.97-.01.84,0,1.69,0,2.53h-2.3c-2.3-1.4-4.83-4.54-6.84-6.44-.21-.2-.64-.28-.9-.53-.44-.41-.85-1.61-1.81-1.76-.1-.02-.21.45-.34.46Z"/>
  <path class="cls-10" d="M200.23,199.25c1.66.17.81,2.07.57,2.07h-8.16c.18.93-.25,2.91,0,3.68.08.23.1.21.33.24.97.12,6.11-.23,6.33,0v1.38h-6.67c-.05.4.52.22.8.23.97.04,5.29.19,5.86,0-2.11.53-4.49.09-6.67.23v3.45c2.45.21,5.33-.28,7.72-.01.32.04.33.02.55.24-.48.24-.11,1.49-.23,1.61-.39.39-9.69-.3-11.04,0v-12.64c3.25-.1,6.53.13,9.78,0,.44-.02.92.24.79-.46ZM192.18,204.76v-3.22h-.23v3.22h.23Z"/>
  <path class="cls-10" d="M207.35,211.89c-.68-.24-.59.43-1.02.48-.67.08-1.54,0-2.2-.13l2.05-3.05c1.4-2.52,2.85-6.67,4.4-8.83.72-1,1.66-1.06,2.87-.89.47.07.97,1.05,1.25,1.39.2.24.85.86,1.15,1.38-1.25.07-.03.79,0,.85,1.22,2.65,2.83,4.94,4.13,7.37.28.52.33,1.33.93,1.89-.97-.1-2.48.41-2.97-.64s-.21-.93-1.03-1.91c-.36-.44.06-.76-1.06-.89-1.51-.17-4.9-.15-6.44,0-.14.01-.29-.06-.43.03-.1.11,0,.38-.03.43-.74.96-.94,1.66-1.61,2.53ZM212.18,202c-.8.02-.83,1.24-1.18,1.87-.2.36-.97,1.26-1.1,1.52-.39.78-.11.9-.02,1.43.04.21-.06.54,0,.69.13.34.3.21.56.24,1.03.13,3.08.07,4.16,0,.26-.02.45.09.56-.24.35-1.06-.38-1.1-.53-1.43-.36-.83-.47-1.04-.85-1.72-.34-.61-.92-2.38-1.61-2.36Z"/>
  <path class="cls-1" d="M128.73,199.25c1.56.38,3.72.38,5.29,0,.15,0,.31-.01.46,0-.13.74.37.38.79.46.71.14,2.36.22,2.43,1.15-.79.05-1.2.93-1.28.94-.22.03-1.17-.85-2.17-.94-1.21-.1-2.99-.12-4.14.23-.03,0-.44.21-.46.23-.38.38-.38,3.41,0,3.91.68.9,4.76.48,5.83-.03.69-.34,1.2-1.35,1.3-1.34.07,0,.26.3.46.23-.38-1.57.84-1.24,2.07-1.38.06.71-.33,2.05.46,1.84-1.04,3.26-6.11,2.89-8.86,2.98-.45.01-.94.25-1.25.24-.03,0-.05-.29-.23-.23-.01.38,0,.77,0,1.15-.28-1.21-1.51-.54-2.53-.69-.01-2.18.09-4.38,0-6.56-.02-.44.24-.92-.46-.79.1-.91,1.46-1.3,2.3-1.38Z"/>
  <path class="cls-1" d="M85.98,202.69c2.6-4.51,12.74-5.16,15.4-.92.13.21.13.52.25.73s1.25,1.45.9,1.79c-.03.03-.46-.01-.67.12-.51.33-.51,1.21-1.4,1.03-.06-1.01-.21-.99-.47-1.84-.1,0-.2.23-.22.23-.47-.13-.79-1.12-.99-1.31-1.67-1.62-5.51-1.85-7.57-.93-.9.4-2.18,1.54-2.7,2.24-.73.98-.85,1.32-.71,2.67.07.63.47.64.71,1.24.04.19.25.43.23.69.11.77-.34.38-.74.38s-1.7.12-1.77.06c-.13-.09-.16-.93-.27-1.19-.09-.21-.4-.11-.46-.51-.07-.57-.07-2.22,0-2.79.03-.23,1.01-1.05.48-1.71Z"/>
  <path class="cls-10" d="M110.11,204.3c.01,2.01-.53,5.23,1.87,6.1.51.18.63-.13.66-.12.34.08.71.37,1.09.4,1.64.16,2.58-.17,4.03-.86l1.09-2.31c0,.29-.19,1.16.23,1.15,0-.99,0-1.99,0-2.99.97.13.2-1.71.48-2.04.13-.15,1.69-.3,2.04-.25-.02,1.41,0,5.1-.48,6.25-.04.11-1.49,1.61-1.59,1.67-1.61,1.11-5.97,1.31-7.82.81-.68-.19-1.51-.92-2.3-.92-.08-.08-.16-.15-.23-.23-1.33-1.51-1.55-3.32-1.62-5.39-.03-.86.24-1.91.24-2.42.8.38,1.32,1.33,2.3,1.15Z"/>
  <path class="cls-3" d="M101.38,201.77c1.38.59,1.73,1.82,1.84,3.22-.43.79-.22,1.94-.48,2.81-.03.11-.99,1.6-1.13,1.79-2.74,3.62-9.25,3.12-13.1,1.84-.07-.08-.18-.14-.23-.23-.11-.18.23-.59-.34-.46l-.12.23c-3.01-1.61-3.48-5.42-1.84-8.27.53.66-.45,1.48-.48,1.71-.07.57-.07,2.22,0,2.79.05.4.37.3.46.51.11.26.14,1.1.27,1.19.07.05,1.37-.06,1.77-.06s.86.39.74-.38c.74.3,1.16,1.04,1.91,1.42,2.43,1.26,4.36,1.01,6.83.18.02,0,.14.26.43.13,1.29-.6,1.5-1.28,2.03-2.37.12-.26.49-.27.52-.44.09-.43.04-1.4,0-1.91.88.18.88-.7,1.4-1.03.21-.14.65-.1.67-.12.35-.35-.79-1.59-.9-1.79s-.11-.52-.25-.73Z"/>
  <path class="cls-1" d="M154.25,200.39c1,.24,1.24,1.71.92,2.53-.2.51-.63,1-.94,1.66-.08.17-.4.17-.44.34-.08.33-.08,1.41,0,1.74.04.16.37.16.43.34.15.44.07.94.33,1.36.31.52,1.67,1.37,2.22,1.91.7.69.85.65.69,1.84-1.01-.14-1.93-.2-2.86-.68l-.13.22c-2.11-1.06-2.67-1.95-3.47-3.96-.08-.21-.41-.11-.46-.51-.06-.47-.07-2.32.03-2.72.04-.16.36-.15.43-.34.75-1.88,1.36-2.68,3.24-3.73Z"/>
  <path class="cls-3" d="M226.2,199.93c.13.07.58.66,1.03.93s1.47.44,1.63.67c.37.55-.23,1.77.34,2.31,0,.23,0,.46,0,.69v.23c-.02,1.98.07,3.99,0,5.98-.44.33-.18,1.11-.23,1.61-.39.13-1.35-.09-1.84,0v-10.68c-.06-.28-.51-.06-.69-.13s-.66-.21-.69-.23c-.02-.01.1-.4-.15-.46-.61-.16-3.83.16-3.99,0v-1.15c1.19.17,3.61-.32,4.6.23Z"/>
  <path class="cls-3" d="M241.84,201.31c-.8-.03-.63-.14-.69.56-.23,2.95.16,6.19.02,9.18-.06.22-.95.18-1.16.72s.55.16.46.57c-1.04.28-.74-.74-1.61-.23v-11.33c.64-.23.23-1.12,1.03-.86.26.09.3,1.51,1.26,1.15-.05-.46.08-1.06,0-1.49-.02-.13-2.15.43-2.53-.12.33-.34,2.68-.36,3-.13.37.26.2,1.48.22,1.97Z"/>
  <path class="cls-3" d="M41.15,26.66c1.11-1.23,5.3-1.96,7-2.08,15.51.66,31.71-.85,47.13.01,4.34.24,9.04,1.75,11.62,5.46.66.95.83,1.38.91,2.58h-.23s-.37.1-.45-.16c-.12-.36-.03-.9-.2-1.36-.12-.33-2.07-2.92-2.41-3.24-1.5-1.45-6.44-2.67-8.55-2.81-15.77.81-32.63-1.08-48.28-.01-2.38.16-4.3.99-6.54,1.62Z"/>
  <path class="cls-3" d="M160.92,199.02c-.13.74.37.39.8.45,1.39.21,2.47.6,3.8.93.07.08.15.16.23.23s.56.51.59.54c.24.25,1.31,1.25,1.01,1.52-1.29.12-2.26-.03-3.45-.46-.06-.08-.17-.14-.23-.23-.05-.07.14-.3-.15-.46-.07-.04-1.31-.41-1.41-.42-.35-.03-.48.19-.5.19-2.22-.05-4.78-.12-6.44,1.61.32-.81.08-2.28-.92-2.53,2.37-1.32,3.95-1.51,6.67-1.38Z"/>
  <path class="cls-1" d="M42.53,118.12c6.44,1.05,13.73.3,20.31.32,8.74.02,18.29.68,26.94.15.55-.03,1.43-.11,1.94-.24v.23c-.37.11-1.44.46-1.72.46h-45.29c-.68,0-2.03-.64-2.64-.92.15.02.32-.02.46,0Z"/>
  <path class="cls-16" d="M200.23,199.25c.13.7-.35.44-.79.46-3.25.13-6.53-.1-9.78,0v12.64c1.35-.3,10.65.39,11.04,0,.12-.12-.25-1.37.23-1.61.89.89.11,1.88-1.06,2.05-1.77.26-7.85.27-9.64.03-.2-.03-1.25-.4-1.25-.47v-12.64c0-.07,1.06-.45,1.25-.47,2.09-.27,7.86-.21,10.01.01Z"/>
  <path class="cls-1" d="M280.92,200.16c.05-.52-.09-.8.57-.92.32-.06,1.76-.08,2.03,0,.26.07.12.44.15.46-.45,3.31-.18,6.75-.23,10.11-.94.04-.15-1.24-.67-1.97-.35-.49-1.35-.47-1.41-.7-.3-1.1.11-4.49.03-5.96-.02-.43.05-.86-.47-1.02Z"/>
  <path class="cls-3" d="M167.81,209.36c-.27.37-.61.65-.92,1.15-.96-.22-.63.41-.69.46s-.39-.08-.52,0c-2.47,1.71-5.31,1.56-8.21,1.14.16-1.19,0-1.15-.69-1.84,2.04.47,4.18.63,6.21,0,.51.04.81.12.69-.46.02,0,.02-.14.23-.23.25-.1.96-.47,1.02-.48.73-.1,2.2-.09,2.89.25Z"/>
  <path class="cls-6" d="M238.62,199.48c.38.55,2.51-.01,2.53.12.08.43-.06,1.03,0,1.49-.96.35-1-1.07-1.26-1.15-.8-.26-.39.63-1.03.86v11.33c.86-.51.56.51,1.6.23.1-.41-.67-.03-.46-.57s1.1-.5,1.16-.72c.15-2.99-.25-6.22-.02-9.18.06-.71-.11-.59.69-.56.1,3.69-.05,7.42-.03,11.11-.22.68-2.62.39-3.28.17-.06-1.62-.45-12.57.1-13.13ZM241.03,212.11v.23c.15-.08.15-.15,0-.23Z"/>
  <path class="cls-6" d="M38.62,28.73c-.64.93-1.54,2.93-1.62,4.01-.34,4.63-.41,12.89.01,17.47.07.75.77,1.96,1.14,2.72.03.07,1.23.51,0,.62-.79-.92-1.73-2.62-1.83-3.8-.37-4.21-.41-12.6-.01-16.78.15-1.61,1.12-3.4,2.31-4.24Z"/>
  <path class="cls-6" d="M174.94,207.29c.29.76.41,4.89.13,5.3s-3.35.35-3.35-.13v-13.1s.32-.34.34-.34h7.59c1.35,0,2.49.53,3.56,1.15l-3.79-.7h-7.25v12.88h2.3s0-5.06,0-5.06c.15-.01.31,0,.46,0Z"/>
  <path class="cls-16" d="M229.19,203.84c0-.42-.08-2.43,0-2.53.03-.03.31.01.46,0,0,.15,0,.31,0,.46.15,3.43-.11,6.91,0,10.34v.23c-.5.31-2.36.35-2.99.23l-.23-.23v-10.8c.18.06.63-.16.7.13v10.68c.48-.1,1.43.13,1.83,0s.21-1.12.23-1.61c.07-1.98-.02-3.99,0-5.98,0-.08,0-.15,0-.23,0-.23,0-.46,0-.69Z"/>
  <path class="cls-5" d="M118.85,97.9c-2.21.72-9.97.22-12.87.23-1.45,0-2.91,0-4.37,0-.31,0-.61,0-.92,0-.92,0-1.84,0-2.76,0-.76,0-1.53,0-2.3,0-.15,0-.31,0-.46,0-.23,0-.46,0-.69,0-.46,0-.92,0-1.38,0-.23,0-.46,0-.69,0-.76,0-1.53,0-2.3,0-.23,0-.46,0-.69,0-3.45,0-7.04.14-10.47,0-.44-.02-.92.24-.79-.46,4.79.23,9.8.18,14.59.24,8.7.11,17.41-.1,26.1-.01Z"/>
  <path class="cls-1" d="M235.17,199.48c-.89-.21-.27,1.19-.46,1.38-.16.16-3.58-.17-4.22,0-.26.07-.13.44-.15.46-.09.07-.6.06-.69.46,0-.15,0-.31,0-.46-.14.01-.43-.03-.46,0-.08.09,0,2.11,0,2.53-.56-.54.03-1.76-.34-2.31-.15-.23-1.2-.42-1.63-.67s-.9-.85-1.03-.93l8.16-.23-.34-.46c.38.02.91-.17,1.15.23Z"/>
  <path class="cls-1" d="M121.38,199.25c.39,1.25.25,2.81.23,4.14-.36-.05-1.92.1-2.04.25-.29.34.49,2.18-.48,2.04.01-1.64.02-3.3,0-4.94,0-.39.15-1.02-.23-1.26.13-.39,2-.24,2.53-.23Z"/>
  <path class="cls-6" d="M269.65,57.68c-9.14,8.78-24.6,10.61-36.78,7.12.23-.45.76-.15,1.1-.07,10.66,2.74,25.27,1.22,34.07-5.81.51-.4.72-1.21,1.62-1.25Z"/>
  <path class="cls-5" d="M260,173.51c-15.55-.69-31.9.92-47.36,0h47.36Z"/>
  <path class="cls-3" d="M110.34,199.48c0,.15,0,.31,0,.46-.42,1.3-.24,2.98-.23,4.37-.98.18-1.5-.77-2.3-1.15-.01-1.16-.43-2.44-.23-3.68.93-.05,1.84.18,2.76,0Z"/>
  <path class="cls-16" d="M76.32,199.25s-.36.25-.78.25c-2.19,0-4.39-.04-6.58-.02v12.87h2.07s0-4.71,0-4.71l.46.34c-.03.13.01.31,0,.46-.02.23,0,.46,0,.69-.03.76,0,1.54,0,2.3v.92c-.55.52-2.18.1-2.99.23v-13.33h7.82Z"/>
  <path class="cls-5" d="M214.71,200.85c-.28-.35-.78-1.33-1.25-1.39-1.21-.17-2.15-.11-2.87.89-1.55,2.15-3,6.31-4.4,8.83l-2.05,3.05c.66.14,1.53.21,2.2.13.43-.05.34-.72,1.02-.48-.09.11,0,.42-.36.67-.75.5-2.2.15-3.09.25-.02-.25,0-.5.05-.75.18-1,1.13-2.05,1.55-2.86,1.56-2.96,3.05-6.2,4.82-8.98.51-.8-.18-1.04,1.51-1.2s2.85-.09,2.87,1.83Z"/>
  <path class="cls-5" d="M88.73,99.74c.38,0,.77,0,1.15,0,.31,0,.61,0,.92,0,9.24-.08,18.48.08,27.72-.02.44-.07.3.46.33.48-3.18-.06-6.37.07-9.55.01-.52-.01-.98-.23-1.48-.24h-.23c-7.66-.12-15.33.09-22.99,0,1.47-.2,2.62-.21,4.14-.23Z"/>
  <path class="cls-5" d="M164.83,49.41c-.05.19.03.47,0,.69l-.23.46c-.36,4.75.08,11.19.23,16.09-.8.03-.63.14-.69-.56-.34-4.33-.35-11.79,0-16.11.05-.67-.04-.62.69-.56Z"/>
  <path class="cls-6" d="M234.02,199.25l.34.46-8.16.23c-.99-.55-3.41-.06-4.6-.23v1.15c.16.16,3.37-.17,3.99,0,.25.07.13.45.15.46-1.17-.2-3.45.3-4.45-.03-.54-.18-.56-1.6-.15-1.81.03-.02.65-.23.69-.23,2.94-.39,9.06-.16,12.18,0Z"/>
  <path class="cls-6" d="M283.67,199.71s.31-.07.41.04c.15.18.14,4.16.07,4.68-.06.45-.44.12-.5.88-.09,1.25.44.95.5,1.38.11.87.13,4.69-.03,5.48-.15.75-2.01.76-2.6.59-.28-.08-.32-.38-.38-.42h2.3c0-.84-.01-1.69,0-2.53.05-3.36-.22-6.8.23-10.11Z"/>
  <path class="cls-6" d="M276.09,38.15c.96,3.39.65,9.11-.71,12.23-1.21,2.77-3.36,4.98-5.49,7.08,0-.97,1.12-1.38,1.61-1.95,1.5-1.72,2.7-3.99,3.47-6.14,1.06-2.96,1.91-6.17,1.12-9.68-.04-.18-.4-.05-.47-.49-.05-.31-.2-1.24.48-1.05Z"/>
  <path class="cls-5" d="M271.26,199.71c-.51.59-.39-.17-.61-.23-.56-.15-1.51.1-2.14,0v12.87h2.3s0-8.5,0-8.5c.19-.07.4.23.46.23v8.5c-.53-.23-2.99.51-2.99-.12v-13.21c1.19.05,1.97-.28,2.99.46Z"/>
  <path class="cls-5" d="M168.04,46.19s-.39-.23-.11-.23c10.13.3,20.48-.4,30.58,0,.44.02.92-.24.79.46-.76,0-1.53,0-2.3,0l-.11-.23-.11.23c-.54,0-1.07,0-1.61,0l-.46-.23c-8.88-.08-17.78.06-26.67,0Z"/>
  <path class="cls-16" d="M126.44,200.62c.7-.13.44.35.46.79.09,2.18-.01,4.38,0,6.56,0,1.45,0,2.91,0,4.37.61-.01,1.23.02,1.84,0,.23,0,.46.01.69,0,.01-.92-.02-1.84,0-2.76,0-.31,0-.61,0-.92,0-.38,0-.77,0-1.15.17-.06.2.23.23.23-.17.91.28,4.3-.1,4.84-.28.4-2.89.26-3.09-.05.24-3.78-.43-8.21-.03-11.92Z"/>
  <path class="cls-3" d="M294.02,90.32c1.6,2.67,1.19,2.66,1.84,5.59.04.19.42.06.47.49.07.57.09,3.41-.02,3.88-.04.18-.41.14-.45.31-.39,1.69-.12,1.94-.92,3.75-.81-.66.43-1.67.45-1.77.36-1.7.36-5.07.23-6.84-.07-.98-.56-2.49-.93-3.39-.11-.27-1.24-1.35-.67-2.02Z"/>
  <path class="cls-5" d="M161.61,49.41c.69-.13.45.35.46.79.15,4.48.18,9.57,0,14.04-.02.44.24.92-.46.79.05-5.05-.34-10.66,0-15.63Z"/>
  <path class="cls-6" d="M54.25,205.91c.08-.23.1-.21.33-.24,1.27.16,9.4-.3,9.75.27.1.16.08,1.16.02,1.41-.04.16-.36.15-.43.34-.46,1.4-.8,2.43-2.11,3.37-3.72,2.66-9.82,2.29-13.32-.56v-.23c2.4,2.42,9.05,2.81,11.89,1.21.99-.55,2.68-2.24,3.09-3.37.23-.63.21-1.32.19-1.98h-8.97s-.46-.23-.46-.23Z"/>
  <path class="cls-16" d="M47.59,57.68c.24-.38.87-.23,1.26-.23,9.11-.1,18.23.09,27.34,0,.27.04.09.44.13.47-.41-.13-.82-.21-1.25-.24-8.99-.49-18.51.55-27.48,0Z"/>
  <path class="cls-6" d="M42.53,107.09c.52.47-.37.94-.46,1.08-.8,1.32-1.82,4.37-1.85,5.91-.05,1.94.48,3.25,2.31,4.03-.14-.02-.31.02-.46,0-.34-.15-1.22-.44-1.54-.75-.19-.18-.15-.49-.29-.69-.1-.15-.37-.16-.4-.22-.24-.57-.2-3.5-.06-4.15.04-.16.39-.14.44-.33.64-2.49.82-2.8,2.32-4.88Z"/>
  <path class="cls-5" d="M189.42,43.89l.11.23.11-.23c.49,0,.97.23,1.48.24,6.73.06,13.67-.27,20.35,0,.17,0,.71-.07.34.23-7.35-.19-14.73.24-22.08,0-.44-.01-.92.23-.79-.46.15,0,.31,0,.46,0Z"/>
  <path class="cls-6" d="M231.95,128.69c5.52-1.01,11.93-.05,16.09,3.68.03.03.26-.04.38.08s.05.35.08.38c.09.1.08-.07.46.46,1.27.25.42.19.97,1,1.07,1.58,2.08,2.27,2.25,4.41.09,1.13.1,3.5-.25,4.53-.07.2-.35.2-.42.35-.58,1.31-.64,1.45-1.63,2.58-.48-.44.58-1.15.68-1.32.73-1.32.62-2.25.94-3.57.05-.21.68-.24.47-1.67-.06-.43-.42-.29-.47-.49-.7-2.96-.75-3.32-2.53-5.82-.78-.15-.34-.35-.46-.46-.21-.18-.43-.44-.46-.46-2.23-1.78-7.38-3.47-10.22-3.69h-5.87Z"/>
  <path class="cls-5" d="M107.58,199.48c-.2,1.24.22,2.51.23,3.68,0,.51-.27,1.56-.24,2.42.07,2.08.29,3.88,1.62,5.39-.33,0-1.23-.88-1.33-1.07-.42-.82.05-1.71-.73-2.07v-8.34c.15,0,.3,0,.45,0Z"/>
  <path class="cls-6" d="M121.38,199.25c.23,0,.46-.01.69,0-.27,2.68.36,6.04.02,8.64-.06.42-.42.29-.47.49-.12.48-.08,1.66-.54,2.08-.11.1-.44,0-.56.12s-.02.44-.12.56c-.06.07-1.53.85-1.73.93-2.37.99-4.53.96-6.95.29v-.23c1.84.5,6.21.3,7.82-.81.09-.07,1.54-1.57,1.59-1.67.47-1.15.46-4.84.48-6.25.02-1.33.16-2.88-.23-4.14Z"/>
  <path class="cls-6" d="M70.11,75.61c-1.6.51-3.46.1-5.14.26-2.27.22-4.46,1.05-6.51,2-.29.14-.76.53-.99.04,3.78-2.17,8.36-2.85,12.64-2.3Z"/>
  <path class="cls-6" d="M260.23,159.03c.22.29.6.46.63.52.15.25.01.51.06.63,1.28.24.62.46,1.17,1.43.21.37,1.03,1.25,1.17,1.65.27.77.25,1.73.44,2.5.05.19.39.16.44.33.18.75.29,3.37.24,4.2-.41-.23-.15-.85-.24-1.22-.05-.18-.41-.15-.45-.32-.26-1.16-.12-2.94-.48-4.26s-1.78-2.99-2.28-4.31c-.76-.14-.45-.4-.91-1.04l.22-.11Z"/>
  <path class="cls-6" d="M274.48,78.37l-11.72-.69c4.21-.37,7.58-.14,11.72.69Z"/>
  <path class="cls-6" d="M162.07,150.76c.69-.13.45.35.46.79.09,2.71-.28,5.93-.02,8.53.03.27,1.21.99.02,1.02-.89-2.09-.44-7.78-.46-10.34Z"/>
  <path class="cls-16" d="M107.58,50.79c-1.27-.06,0-1.34.02-1.48.19-1.52.43-15.98-.02-16.68h.23c.32,4.85.32,12.04,0,16.9-.03.46-.13.82-.24,1.25Z"/>
  <path class="cls-5" d="M52.64,83.19c-.05.09-.46,1.85-.46,1.95v3.68c0,.09.39,1.55.47,1.79.03.09,1.2.54,0,.63-.17-.32-.88-1.68-.91-1.78-.63-2.29-.13-4.29.68-6.27h.23Z"/>
  <path class="cls-5" d="M215.86,202.23c1.9,3.24,3.59,6.58,5.3,9.94.14.28.53.04.45.4-.91.25-2.52.45-3.39.08-.43-.18-1.49-3.08-1.95-3.22-.68-.21-1.47.19-2.01-.3.51-.03,1.29.19,1.61-.23,1.13.13.7.46,1.06.89.82.99.54.86,1.03,1.91s1.99.54,2.97.64c-.6-.56-.65-1.37-.93-1.89-1.3-2.43-2.9-4.72-4.13-7.37-.03-.05-1.25-.78,0-.85Z"/>
  <path class="cls-6" d="M280.23,116.97c.13.61-.31.45-.68.57-3.26,1.1-6.24,1.59-9.66,1.73v-.23c1.36-.09,3-.3,4.42-.53,1.85-.3,4.34-1.45,5.93-1.54Z"/>
  <path class="cls-10" d="M166.89,210.51c-.52.84-.39.25-.69.46-.03.02.08.35-.04.42-3.21,1.83-8.38,1.93-11.69.27l.13-.22c.93.48,1.86.54,2.86.68,2.9.41,5.74.57,8.21-1.14.13-.09.46.04.52,0s-.27-.67.69-.46Z"/>
  <path class="cls-6" d="M102.07,209.59c-2.29,2.8-6.24,3.56-9.74,3.19-.94-.1-3.25-.66-3.82-1.35,3.86,1.28,10.37,1.78,13.1-1.84h.46Z"/>
  <path class="cls-6" d="M220.69,136.74v4.25c.21.76.2,1.58.42,2.33.06.21,1.24.97.04,1-1.4-2.72-1.36-4.77-.46-7.58Z"/>
  <path class="cls-10" d="M248.04,201.31c.06.44-.96,1.2-1.13,1.56-.59,1.3-.69,4.31-.21,5.64.13.36.6.24.88,1.3.78.28.63.59,1.2.98,3.34,2.27,10.38,2.2,13.28-.75h.46c-3.67,3.52-10.39,3.73-14.28.6-.17-.14-.54-.1-.62-.19-.15-.16,0-.48-.04-.64-.14-.05-.48.1-.65-.03-.14-.11-.28-.99-.43-1.29-.13-.27-.43-.24-.51-.46-.79-2.16.06-5.13,1.66-6.66.15-.14.37-.04.4-.06Z"/>
  <path class="cls-5" d="M47.36,202.46l-.66,2.21c-.09.89-.11,2.55.22,3.35.05.13,1.41,2.07,1.59,2.25v.23c-1.32-1.07-2.49-2.7-2.53-4.49-.01-.48.09-1.84.24-2.23.1-.26.45-.24.56-.41.17-.28.06-.69.19-.86.09-.12.38-.03.4-.05Z"/>
  <path class="cls-16" d="M162.07,147.77c-.02-4.59-.04-9.2,0-13.79,0-.8-.02-1.61,0-2.42,0-.2-.09-.83.23-.45-.05,5.13.06,10.27,0,15.4,0,.39.15,1.02-.23,1.26Z"/>
  <path class="cls-5" d="M58.85,149.38l-.17,4.88c.22,1.32.77,2.73,1.61,3.68l.62,1.55c-.02-.07-.97-.83-1.07-.99-.55-.89-.92-2.18-1.25-3.19-.06-.18-.39-.18-.43-.34-.39-1.65.2-3.99.68-5.58Z"/>
  <path class="cls-5" d="M232.18,97.9l.69.23c1.3.05,2.61-.02,3.91,0,.12,0,1.2-.14.8.23-3.22-.08-6.45.11-9.66,0-.44-.01-.92.23-.79-.46,1.68.02,3.38-.05,5.06,0Z"/>
  <path class="cls-6" d="M160.92,68.02s.54.26.46.46l-9.65.69c1.86-.35,3.75-.74,5.63-.92.81-.08,2.91-.34,3.56-.23Z"/>
  <path class="cls-16" d="M192.64,204.99h6.9c-.08.43.23,1.69-.23,1.84-.58.19-4.9.04-5.86,0-.28-.01-.85.17-.8-.23h6.67v-1.38c-.22-.23-5.37.13-6.33,0-.23-.03-.26,0-.33-.24Z"/>
  <path class="cls-6" d="M101.15,163.62c.4.68.71,1.46,1.05,2.05.1.18.43.15.6.56,1.32,3.24-2.24,3.95-4.64,3.59,2.43-.7,4.76.26,4.09-3.29-.03-.17-1.27-2.24-1.41-2.46-.34-.52-.12-.49.31-.46Z"/>
  <path class="cls-5" d="M110.34,199.93c.1,2.1-.39,6.14,0,7.88.04.17.36.18.43.34.48,1.18.49,1.61,1.86,2.12-.03,0-.16.31-.66.12-2.4-.87-1.86-4.09-1.87-6.1,0-1.39-.19-3.06.23-4.37Z"/>
  <path class="cls-6" d="M217.7,99.97l-9.88.23s-.07-.32.04-.41c.36-.3,8.39-.18,9.3-.06.34.04.52.24.55.24Z"/>
  <path class="cls-5" d="M207.81,97.9c4.5-.18,9.27-.02,13.79,0-.24.38-.87.23-1.26.23-4.29.05-8.59-.05-12.88,0-.36-.3.17-.22.34-.23Z"/>
  <path class="cls-6" d="M241.84,20.22v.23c-2.87.15-6.24.71-8.97,1.15,2.93-.89,5.93-1.28,8.97-1.38Z"/>
  <path class="cls-6" d="M173.33,68.94c-.24.43-.82.21-1.19.16-1.55-.18-3.11-.46-4.67-.62-.56-.06-1.35.12-1.8,0-.24-.07-.13-.45-.15-.46,2.63.11,5.23.47,7.82.92Z"/>
  <path class="cls-6" d="M206.2,92.15c.25.82.79,2.4.91,2.92.16.67.1,1.85.24,2.6-.22-.03-.47.03-.69,0-.02-1.28-.13-2.8-.44-4.04-.04-.18-1.28-1.41-.02-1.48Z"/>
  <path class="cls-6" d="M93.33,139.49l-9.43-2.53c3.73.08,6.09.82,9.43,2.53Z"/>
  <path class="cls-6" d="M235.17,199.48c.21.35.23,1.27,0,1.61l-.69.23c-1.31.13-2.8-.09-4.14,0,.03-.02-.11-.4.15-.46.64-.17,4.06.17,4.22,0,.19-.19-.43-1.59.46-1.38Z"/>
  <path class="cls-6" d="M207.35,100.43l-.25,4.45c-.82,1.04-.97,3.01-1.61,4.34l-1.13,1.56c.27-1.98,1.77-4.45,2.3-7.24.19-1.02.28-1.77.46-2.76.05-.25.14-.23.23-.34Z"/>
  <path class="cls-5" d="M62.76,201.54v.23c-.95-.49-1.59-1.21-2.64-1.61-3.17-1.21-6.45-.91-9.54-.23,3.19-1.53,7.81-1.19,10.84.54.47.27.93.71,1.35,1.07Z"/>
  <path class="cls-5" d="M94.71,112.38c.23,1.06.36,2.96,0,3.96-.04.1-1.25,1.53-1.4,1.63-.56.38-.98.44-1.58.62v-.23c.58-.15,2.08-1.3,2.28-1.79.39-.95.21-2.37.25-3.39.02-.44-.23-.92.46-.79Z"/>
  <path class="cls-6" d="M165.75,200.62c.62-.06,2.79,2.05,2.3,2.53-.98-.13-3.12.31-3.85-.29-.16-.13-.17-.48-.28-.63,1.19.43,2.16.58,3.45.46.3-.27-.78-1.27-1.01-1.52-.03-.04-.51-.47-.59-.54Z"/>
  <path class="cls-6" d="M62.76,201.54c.43.37.91.35,1.14,1.27-1.75.88-3.73.38-5.05-1.04h.23c1.43.62,2.08,1.27,3.91.92l-.23-.92v-.23Z"/>
  <path class="cls-6" d="M82.76,88.25c-.25,2.08-1.09,3.63-2.53,5.06l-.17-.28,1.82-2.79c.03-.61.37-1.45.42-1.98h.46Z"/>
  <path class="cls-6" d="M263.68,203.61c.18.45.45.58.46.62.13.58.17,2.79-.01,3.35-.06.2-.36.18-.43.35-.16.4-.26,1.26-.46,1.52-.17.22-.54.08-.66.19-.14.12-.02.39-.05.41h-.46c.14-.15.62-1.07.77-1.3.11-.17.46-.18.56-.46.1-.27.28-1.66.29-2.03.02-.92-.44-1.88-.01-2.65Z"/>
  <path class="cls-5" d="M250.8,115.82l10.8,3.22c-3.71-.48-7.44-1.62-10.8-3.22Z"/>
  <path class="cls-5" d="M184.14,200.85s.29-.08.47.15c.66.85.62,3.66,0,4.52-.13.18-.49.23-.7.39l-.2-.25c.54-.96,1.13-1.06,1.14-2.39l-.71-2.41Z"/>
  <path class="cls-5" d="M59.08,201.77h-.23c-1.87-.46-3.82-1.01-5.75-.46l-.15-.26c2.44-.58,3.98-.21,6.13.72Z"/>
  <path class="cls-16" d="M212.18,46.42c-3.06,0-6.13,0-9.2,0,.24-.38.87-.23,1.26-.23,2.21-.02,5.02-.2,7.15-.01.45.04.43.05.78.24Z"/>
  <path class="cls-5" d="M119.08,205.68c0,.99,0,1.99,0,2.99-.42.01-.22-.86-.23-1.15-.07-2.67.05-5.37,0-8.04.38.24.23.87.23,1.26.02,1.65,0,3.3,0,4.94Z"/>
  <path class="cls-16" d="M54.71,206.14c.06.28-.16,1.11.13,1.15,1.49.23,3.52-.2,5.05-.01.25.03.45-.1.56.24h-6.21c.08-.45-.12-1.25,0-1.61l.46.23Z"/>
  <path class="cls-5" d="M119.77,93.3c.48,1.26-.34,2.89-.22,4.22-.03.29-.4.09-.47.14.1-.71-.15-1.72,0-2.37.05-.2.51-1.32.68-2Z"/>
  <path class="cls-5" d="M94.94,66.19c-.38-.24-.23-.87-.23-1.26-.02-1.95-.2-4.6,0-6.46.03-.32,0-.33.24-.55v8.27Z"/>
  <path class="cls-6" d="M165.52,200.39c-1.33-.32-2.41-.72-3.8-.93-.43-.06-.93.29-.8-.45,1.36.07,3.69.41,4.6,1.38Z"/>
  <path class="cls-10" d="M134.48,199.25c1.26.09,3.37.57,4.29,1.45.07.07,1.1,1.42,1.13,1.51.23.88.13,1.5-.13,2.32-.79.21-.4-1.13-.46-1.84-.09-1.03-.32-1.92-1.61-1.84-.07-.93-1.72-1.01-2.43-1.15-.42-.08-.92.27-.79-.46Z"/>
  <path class="cls-16" d="M185.52,211.66c.92,1.38-1.24,1.29-2.18,1.14-.53-.08-.55-.31-.81-.45h2.99s0-.69,0-.69Z"/>
  <path class="cls-6" d="M54.94,79.74c.31,0,.53-.1.46.23-.38.17-.81.46-1.15.69-.44,1.36-1.17,1.72-1.61,2.53h-.23c.57-1.4.6-1.67,1.84-2.53.05-.15-.11-.43.05-.64.06-.07.45-.12.64-.28Z"/>
  <path class="cls-5" d="M212.18,40.68c.69-.13.44.35.46.79.02.49.1,1.72.01,2.07-.08.29-.53.06-.7.13.23-.99.15-1.99.23-2.99Z"/>
  <path class="cls-16" d="M215.86,208.9c-.32.42-1.1.2-1.61.23-.23.02-.46,0-.69,0h-.69c-.46,0-.92,0-1.38,0h-.69c-.31,0-.62.02-.92,0-.19-.01-.4,0-.46-.23,1.54-.15,4.92-.17,6.44,0Z"/>
  <path class="cls-5" d="M248.04,20.22c-1.91,0-4.22.12-6.21.23v-.23c2.06-.07,4.14.05,6.21,0Z"/>
  <path class="cls-6" d="M228.04,100.2c-2.06,0-4.14.04-6.21,0,.24-.38.87-.23,1.26-.23,1.58-.02,3.45-.17,4.95.23Z"/>
  <path class="cls-5" d="M103.22,204.99c.14,1.86.02,3.17-1.15,4.6h-.46c.14-.18,1.1-1.68,1.13-1.79.26-.87.05-2.02.48-2.81Z"/>
  <path class="cls-5" d="M52.18,210.05c1.57.65,2.74.62,4.37.69.25.01.75-.16.69.23-1.78,0-3.57.19-5.21-.65l.15-.26Z"/>
  <path class="cls-16" d="M83.68,136.97c-1.79-.03-3.8.21-5.52-.23,1.4-.06,2.85-.02,4.26,0,.39,0,1.02-.15,1.26.23Z"/>
  <path class="cls-16" d="M269.88,119.04v.23c-1.74.07-3.78.08-5.52,0,1.72-.51,3.72-.12,5.52-.23Z"/>
  <path class="cls-6" d="M235.17,100.2c-1.84-.03-3.68,0-5.52,0,1.65-.38,3.87-.38,5.52,0Z"/>
  <path class="cls-16" d="M118.85,100.2c.11.07.63-.15.7.12.05.17.06,2.31-.02,2.41-.03.04-.33-.02-.46,0-.03-.52.06-1.11,0-1.61l-.23-.46c-.04-.11.03-.32,0-.46Z"/>
  <path class="cls-5" d="M237.93,95.14c.64-.39.58,1.77.47,2.17-.07.28-.59.06-.7.12,0-.15,0-.31,0-.46l.23-.11-.23-.11c.08-.53.14-1.1.23-1.61Z"/>
  <path class="cls-10" d="M134.02,199.25c-1.56.38-3.72.38-5.29,0,1.51-.14,3.74-.08,5.29,0Z"/>
  <path class="cls-5" d="M101.61,155.35c-.02.38.03.77,0,1.15-.38-1.32-.29-3.09-.23-4.48.01-.28-.17-.85.23-.8-.04,1.37.06,2.76,0,4.14Z"/>
  <path class="cls-16" d="M82.76,85.72c.04.73.08,1.84,0,2.53h-.46c.07-.71.06-1.81,0-2.53h.46Z"/>
  <path class="cls-5" d="M99.08,57.22c-1.14.22-2.37.17-3.45.46-.13-.74.38-.39.8-.45.8-.11,1.98-.49,2.64-.01Z"/>
  <path class="cls-5" d="M122.76,111.92c1.12,1.04,1.24,1.59,1.96,2.76.07.11,1.38.56.11.69-.2-.26-.26-.71-.46-.97-.61-.81-1.62-1.08-1.61-2.47Z"/>
  <path class="cls-5" d="M148.04,128.92c-1.75-.15-3.4-.85-5.06-1.38.22-.44.77-.17,1.1-.07,1.27.38,2.71,1.05,3.96,1.45Z"/>
  <path class="cls-5" d="M111.72,212.11v.23c-1.16-.32-1.37-.19-2.3-1.15.79,0,1.61.73,2.3.92Z"/>
  <path class="cls-16" d="M167.81,209.36c-.69-.33-2.16-.34-2.89-.25-.06,0-.77.37-1.02.48.88-1.35,2.81-.24,4.03-.92.38.23.02.5-.12.69Z"/>
  <path class="cls-6" d="M80.46,80.66c1.12,1.25,2.21,3.42,2.3,5.06h-.46c-.18-2.17-.72-2.36-1.6-3.86-.04-.07-.53-1.14-.24-1.2Z"/>
  <path class="cls-10" d="M110.34,199.48c-.92.18-1.83-.05-2.76,0-.15,0-.31,0-.46,0,.82-.39,2.45-.38,3.22,0Z"/>
  <path class="cls-16" d="M82.07,212.11s.36.05.23.46c-1.18,0-2.1.12-3.22-.23.95-.12,2.21.28,2.99-.23Z"/>
  <path class="cls-6" d="M161.61,201.31s.16-.23.5-.19c.1,0,1.34.38,1.41.42.29.16.11.39.15.46l-2.07-.69Z"/>
  <path class="cls-5" d="M201.15,83.88c.61-.17.38.37.6.66.14.18.43.22.49.32.16.25.01.53.06.63.9.34.88.65,1.15,1.61-1.09-.68-.66-.54-1.15-1.61-.82-.31-.83-1-1.15-1.61Z"/>
  <path class="cls-3" d="M40.92,26.89c-.71.75-1.36,1.17-2.3,1.84.39-.58.36-.46.81-.93.48-.5.48-1.01,1.49-.91Z"/>
  <path class="cls-6" d="M218.85,100.2c-.25-.76,1.71-.68,1.38,0-.46-.02-.93.04-1.38,0Z"/>
  <path class="cls-6" d="M201.84,131.68c.8.42,1.6,1.03,2.3,1.61-.43.04-.76-.16-1.1-.39-.4-.27-1.1-1.14-1.2-1.22Z"/>
  <path class="cls-5" d="M209.42,208.9c.06.22.27.22.46.23l-.92.23s-.07-.32.03-.43c.13-.09.29-.02.43-.03Z"/>
  <path class="cls-5" d="M48.51,101.58l.14.23c-.54.17-.99.76-1.39,1.06-.07.05-1.19.87-1.28.54.87-.71,1.56-1.24,2.53-1.84Z"/>
  <path class="cls-6" d="M207.12,135.36c-1.32-.78-1.71-1.02-2.76-1.84l2.76,1.84Z"/>
  <path class="cls-5" d="M63.45,162.25l1.51.78,1.02,1.06c-1.05-.67-1.59-1.07-2.53-1.84Z"/>
  <path class="cls-16" d="M163.68,209.82c.12.58-.18.49-.69.46.04-.01.17-.27.69-.46Z"/>
  <path class="cls-6" d="M87.82,210.97l.12-.23c.57-.13.24.27.34.46-.21.02-.33-.16-.46-.23Z"/>
  <path class="cls-10" d="M71.49,212.34v-.92c.33.36.35.59,0,.92Z"/>
  <path class="cls-5" d="M213.56,209.13c-.2,0-.5,0-.69,0h.69Z"/>
  <path class="cls-5" d="M211.49,209.13c-.2,0-.4,0-.69,0h.69Z"/>
  <path class="cls-10" d="M71.49,209.13c0-.23-.02-.46,0-.69.28.23.28.46,0,.69Z"/>
  <path class="cls-1" d="M235.17,201.08c-.23.34-.38.2-.69.23l.69-.23Z"/>
  <path class="cls-1" d="M221.84,199.25s-.66.21-.69.23l.69-.23Z"/>
  <path class="cls-10" d="M232.87,98.13l-.69-.23c.52.01.65.23.69.23Z"/>
  <path class="cls-10" d="M164.6,50.56l.23-.46c-.06.4-.23.43-.23.46Z"/>
  <path class="cls-10" d="M195.17,46.42c-.41,0-.43-.23-.46-.23l.46.23Z"/>
  <path class="cls-10" d="M119.08,101.12s-.14-.23-.23-.46l.23.46Z"/>
  <path class="cls-6" d="M237.24,100.2c-.14-.02-.31.01-.46,0l.14-.21.32.21Z"/>
  <path class="cls-10" d="M197.01,46.42c-.08,0-.15,0-.23,0l.11-.23.11.23Z"/>
  <path class="cls-10" d="M189.42,43.89c.08,0,.15,0,.23,0l-.11.23-.11-.23Z"/>
  <path class="cls-5" d="M66.67,164.31c-.06-.03-.17.03-.23,0l.11-.23.11.23Z"/>
  <path class="cls-10" d="M107.58,99.97h.23c-.07,0-.15,0-.23,0Z"/>
  <path class="cls-10" d="M237.7,96.98c0-.08-.01-.16,0-.23l.23.11-.23.11Z"/>
  <path class="cls-1" d="M229.65,212.34v-.23l.16.13c0,.11-.11.06-.16.1Z"/>
  <path class="cls-3" d="M226.66,212.57c-.15-.03-.23-.06-.23-.23l.23.23Z"/>
  <path class="cls-2" d="M171.72,70.78c6.51,1.59,12.92,3.28,18.74,6.89,6.55,4.06,13.12,11.91,13.67,19.54.02.23,0,.46,0,.69.01.43-.16,1.13.23,1.38,0,1.18-.1,2.98-.23,4.14-.11.99-1.16,3.55-1.61,4.6-1.69,3.88-4.46,7.09-7.64,9.87-.52.45-1.33,1.73-2.01,1.85.13-1.16-.86-1.7-1.37-2.47-.7-1.05-.96-1.6-1.84-2.59-2.23-2.5-5-4.63-8.08-6.29-4.05-2.19-8.54-3.51-13.07-4.28l3.26-1.21c2.77-1.25,4.96-2.92,6.62-5.45.27-.42,1.31-2.04,1.37-2.24.76-2.59.04-5.12-1.14-7.18-2.46-4.32-6.61-6.52-11.49-7.58-.85-.19-1.65-.4-2.53-.46-.15-.01-.31,0-.46,0-2.06-.1-3.75,0-5.75.46-3.87.89-9.32,3.94-11.03,7.58-.47,1-1.1,2.71-1.16,3.78-.15,2.54.97,5.38,2.65,7.25.23.25.55.2.57.22.33.36.38.39.69.69.08.08.15.16.23.23,1.18,1.04,1.83,1.67,3.44,2.42,1.36.64,2.89,1.2,4.37,1.49-.18.34-6.65,1.16-7.58,1.73-3.07,1.11-6.17,2.16-8.95,3.92-3.7,2.35-6.72,6.17-8.07,10.21-.64-.53-1.64-1.17-2.22-1.69-2.36-2.12-5.02-5.29-6.51-7.96-.87-1.56-1.71-3.51-2.17-5.26-.74-2.8-.43-5.43-.59-8.52.48-.39.12-1.17.24-1.68.51-2.29,2.71-6.67,4.14-8.72,2.92-4.21,8.69-8.54,13.33-10.74,8.42-3.99,18.22-5.21,27.48-4.84,1.4.06,3.08.6,4.47.24Z"/>
  <path class="cls-8" d="M187.81,125.71c.58-.05.94,0,1.46.26,1.99.97,5.14,3.83,7.2,5.21.73.49,1.48.78,2.14,1.19l.69.46c.08.05.14.16.23.23.36.29.63.66,1.15.69.07.08.15.15.23.23.42.41.74.84,1.38.92.07.07.16.21.23.23.11.32.35.46.69.46.66,1.05,3.22,2.18,4.3,2.94,4.91,3.41,10.2,7.67,15.26,10.71,1.32.79,2.81,1.52,4.34,1.75l-5.86,1.83c-3.69,1.44-9.22,4.52-11.29,7.9-.4.65-.41,1.81-1.24,2.21h-37.01c-.23-.01-.46.02-.69,0-.3-.02-.64.04-.92,0-1.5-.24-4.47-1.76-4.77-3.39-.2-4.19.09-8.4-.05-12.6-.01-.44.23-.92-.46-.79,0-2.6,0-5.21,0-7.81.7.13.44-.35.46-.79.09-2.18-.02-4.38,0-6.56,2.22-.29,4.45-.39,6.67-.69.53-.07,1.09-.14,1.61-.23,4.94-.84,9.62-2.53,14.25-4.37Z"/>
  <path class="cls-7" d="M265.51,79.97c.68-.01,1.39-.02,2.07,0,.99.03,2,.12,2.99.23,7.87.9,18.93,5.33,21.59,13.28.17.5,0,1.54.48,1.89.09,1.79-.02,3.53-.23,5.29-.45,3.74-2.76,7.42-5.61,10.02-.51.46-.51-.05-1.06,1.01-.98.59-2.15,1.05-2.99,1.84-3.61,1.69-5.59,2.61-9.66,3.22-2.47.37-4.86.55-7.36.46-.08,0-.15,0-.23,0-5.53-.25-10.45-1.79-15.4-4.14-1.24-1.4-3.47-2.41-4.75-3.75-.78-.82-.83-1.52-1.91-2.22.21-.84-.52-1.03-.69-1.31-.53-.89-.82-1.81-1.15-2.83-.27-.84-.61-1.57-.69-2.65-.19-2.57-.04-4.03.67-6.27.22-.7.43-1.61.48-2.35,1.18-.96.9-1.31,1.7-2.45,2.65-3.81,9.06-6.96,13.48-8.12,2.7-.71,5.48-1.09,8.28-1.15ZM266.43,88.25c-.09.03-.29-.07-.41.05s-.02.33-.05.41c-.11.27-.19.28-.23.69-.05.5.02,1.09,0,1.61-.69-.13-.45.35-.46.79-.04,1.28.26,4.3,0,5.26-.07.26-.44.12-.46.15h-4.6c-1.37,0-2.77-.06-4.14,0-.45.02-.94-.05-1.38,0l-.69.23c-.07.02-.16-.02-.23,0-.83.23-1.64.71-1.39,1.69.03.14,1.39.61,1.5.61h11.38v8.04s.33-.08.46.17c.35.69-.19.66.69.98,2.17.8,1.71-.9,1.84-2.3.01-.14,0-.21,0-.23.16-2.09.53-4.38,0-6.43.22-.22.23-.21.55-.24,3.57-.4,7.82.36,11.47-.04.96-.09,1.07-1.37.82-2.1-.19-.57-1.09-.35-1.58-.38-2.62-.11-5.4,0-8.05,0h-2.3c-.18-.14-.63-.1-.7-.38-.32-2.09.51-6.05-.09-7.9-.32-1-1.2-.97-1.97-.68Z"/>
  <path class="cls-12" d="M267.68,31.16c7.51,7.46,7.6,16.62.36,24.51-.34.37-2.14,2.14-2.42,2.24-.44.16-.29-.16-.34-.33-1.4-4.59-7.26-8.22-11.72-9.66-1.42-.46-2.92-.69-4.36-1.04l4.22-1.87c1.41-1.23,2.06-1.84,2.9-3.49.08-.15.45-.14.47-.31.05-.39-.2-.67-.22-.9,0-.11.39-.07.43-.25.58-2.52-.66-6.28-2.71-7.89-4.99-3.9-14.55-3.93-19.4.23s-3.69,10.63,1.88,13.45c.73.37,1.54.47,2.21.77,1.15.52-.45.44-.88.54-3.89.87-8.17,2.02-11.29,4.58-1.55,1.27-3.48,3.48-4.06,5.24l-4.13-4.31c-1.82-2.51-1.99-3.86-2.77-6.79-.05-.2-.41-.07-.47-.49-.11-.87-.11-3.76,0-4.63.05-.42.41-.29.47-.49.93-3.47,1.14-4.25,3.43-7.1,10.99-13.69,36.09-14.25,48.4-2.02Z"/>
  <path class="cls-11" d="M166.43,106.63c8.83.81,18.34,4.33,22.53,12.48.07.13.35.12.44.34.22.53.42,2.13-.04,2.52-5.09,2.57-10.36,4.71-16.03,5.69-10.25,1.77-21.79,1.01-31.39-3.1-.63-.27-4.98-2.32-5.13-2.57-.1-.15-.09-1.6-.03-1.87.04-.17.37-.18.43-.34,2.63-7.09,11.52-11.71,18.87-12.92,2.97-.49,7.35-.51,10.34-.23Z"/>
  <path class="cls-15" d="M61.15,151.67c.15-1.52,1.67-4.72,2.76-6.03,8.02-9.75,29.68-10.56,34.48,2.59.44,1.2.4,1.39.7,2.6.04.18.41.15.45.32.1.42.09,2.69.02,3.19-.06.43-.43.29-.47.49-.36,1.49-.35,2.03-.93,3.52-.62,1.63-1.14,1.93-.89,4,.13,1.1,1.14,1.79,1.57,2.61.12.23.68,1.29.69,1.37.58,2.44-2.67.9-3.9.53-1.46-.45-2.9-1.15-4.4-1.46-3.25-.66-6.47.57-9.74.56-3.09,0-7.21-.79-10.12-1.85-1.5-.55-2.76-1.4-4.25-1.84-2.57-1.94-4.27-3.47-5.31-6.49-.13-.36-.59-1.01-.67-1.79-.06-.63-.06-1.67,0-2.3Z"/>
  <path class="cls-4" d="M211.95,171.44c-.4-.7-.81-.8-.92-1.72-.26-2.14-.02-4.49.9-6.28,7.39-14.32,36.43-13.87,46.46-2.63,1.9,2.13,2.06,3.32,2.77,5.86.05.19.4.16.44.32.09.37.08,2.73,0,3.12-.02.08-.98,1.21-1.14,1.31h-.92c-.38,0-.77,0-1.15,0-6.09,0-12.11-.02-18.16,0l-.11-.23-.11.23c-1.76,0-3.53,0-5.29,0-.03-.35-.66-.35-.69,0-7.35.04-14.72-.03-22.07,0Z"/>
  <path class="cls-11" d="M173.25,85.57c.66.57,2.33,2.72,2.68,3.42.79,1.57,1.2,4.17.6,5.98-.07.2-.34.19-.42.36-3.99,8.09-16.11,9.25-23.09,3.91-1.42-1.09-3.45-3.86-3.59-5.59-.96-11.32,16.42-14.52,23.83-8.08Z"/>
  <path class="cls-4" d="M258.93,53.93c1.89,1.57,2.29,1.66,3.16,4.04.06.16.39.16.43.34.45,1.92-1.92,2.61-3.39,3.22-8.95,3.72-20.56,3.5-29.47-.28-1.43-.61-3.12-1.38-4.15-2.47-.19-.2-.44-.15-.45-.17-.32-.45.37-.44.45-.62,4.4-10.02,21.19-11,30.01-6.5,1.51.77,2.21,1.45,3.41,2.45Z"/>
  <path class="cls-4" d="M247.28,134.74c1.32,1.49,2.15,4.88,1.68,6.89-.04.16-.37.16-.43.34-1.76,5.62-8.52,7.94-14.13,7.38-2.61-.26-8.53-2.35-9.94-4.65-.73-1.18-.9-2.4-1.24-3.66-.05-.19-.4-.16-.44-.32-.08-.32-.07-1.66,0-1.98.04-.16.39-.14.44-.33.33-1.31.31-1.93,1.17-3.1,4.66-6.31,17.82-6.33,22.91-.56Z"/>
  <path class="cls-4" d="M251.4,33.87c2.48,1.79,3.4,5.25,1.47,7.78-3.27,4.26-11.11,4.68-15.35,1.62-2.19-1.58-3.06-5.01-1.87-7.47.05-.1,1.44-1.53,1.6-1.66,3.92-3.19,10.06-3.22,14.16-.27Z"/>
  <path class="cls-6" d="M258.39,171.44c-.24.38-.87.23-1.26.23-14.87.16-29.75-.14-44.62,0-.29-.03-.38.07-.56-.24,7.35-.03,14.72.04,22.07,0,.23,0,.46,0,.69,0,1.76,0,3.53,0,5.29,0,.08,0,.15,0,.23,0,6.05-.02,12.07,0,18.16,0Z"/>
  <path class="cls-6" d="M171.72,70.78c-1.4.36-3.07-.18-4.47-.24-9.26-.37-19.06.85-27.48,4.84l-.17-.28c9.03-4,22.42-6.68,32.13-4.31Z"/>
  <path class="cls-6" d="M95.63,166.84c-.2.44-.74.1-1.04,0-1.03-.33-2.24-.88-3.28-1.09-2.69-.56-4.47.25-7.05.41-5.53.34-12.65-.53-17.14-3.92,1.49.45,2.75,1.3,4.25,1.84,2.91,1.06,7.02,1.84,10.12,1.85,3.26.01,6.49-1.22,9.74-.56,1.5.3,2.95,1.01,4.4,1.46Z"/>
  <path class="cls-6" d="M124.83,110.31c-1.23-.03-.82-.75-1.17-1.43-1.06-2.06-1.08-2.62-1.61-4.83-.05-.19-.4-.17-.44-.33-.26-1.12-.28-4.01-.23-5.24.04-.95.43-2.06.23-3.1.73-.19.44.67.46,1.15.15,3.1-.15,5.72.59,8.52.46,1.76,1.3,3.7,2.17,5.26Z"/>
  <path class="cls-6" d="M265.51,117.2l.11.23.11-.23c2.5.09,4.89-.09,7.36-.46.13.73-.36.39-.79.46-5.28.93-18.72-.23-22.2-4.14,4.95,2.35,9.87,3.88,15.4,4.14Z"/>
  <path class="cls-16" d="M208.73,162.94c-.11.05-.26.34-.55.24-11.73-.12-23.47.11-35.2-.01-.39,0-1.02.15-1.26-.23h37.01Z"/>
  <path class="cls-6" d="M242.07,91.69c-.05.74-.26,1.65-.48,2.35-.71,2.23-.86,3.7-.67,6.27.08,1.08.42,1.81.69,2.65h-.46c-.42-1.24-.83-1.85-.93-3.32-.09-1.32-.04-3.75.25-5.02.04-.18.38-.19.43-.34.24-.68.55-2.08,1.17-2.58Z"/>
  <path class="cls-6" d="M147.35,88.02c1.2.03.03.79-.04,1-1,3.34-.56,6.53,1.45,9.2.19.26.53.32.61.43.15.22.01.59.05.63.12.13.94-.38.69.69-.31-.3-.36-.33-.69-.69-.02-.02-.35.03-.57-.22-1.68-1.87-2.8-4.71-2.65-7.25.06-1.07.69-2.78,1.16-3.78Z"/>
  <path class="cls-6" d="M178.62,88.02c1.18,2.06,1.89,4.59,1.14,7.18-.06.2-1.09,1.82-1.37,2.24-.6-.61.61-1.82.67-2.02.41-1.22.35-4.37,0-5.62-.04-.13-1.15-1.18-.44-1.79Z"/>
  <path class="cls-6" d="M98.39,148.23c1.15-.44.45-.07.7.52,1.15,2.8,1.12,5.56.01,8.39-.22.57.04,1.95-.94,1.2.57-1.49.57-2.03.93-3.52.05-.19.42-.06.47-.49.07-.5.08-2.77-.02-3.19-.04-.17-.4-.14-.45-.32-.29-1.21-.26-1.4-.7-2.6Z"/>
  <path class="cls-16" d="M164.83,138.35c0,2.6,0,5.21,0,7.81,0,1.79.07,3.61,0,5.4-.01.28.17.85-.23.8v-20.91c.4-.05.22.52.23.8.08,2.02,0,4.07,0,6.09Z"/>
  <path class="cls-6" d="M293.1,100.66c-.07.63-.38.38-.45.62-.24.81-.15,2.23-.49,3.1-.53,1.39-4.29,6.14-5.58,6.99-.35.23-.67.2-.84.31-.15.29-1.37,1.36-1.79,1.6s-1.14.22-1.19.24c.84-.79,2.01-1.25,2.99-1.84.55-1.06.55-.55,1.06-1.01,2.85-2.6,5.15-6.28,5.61-10.02h.69Z"/>
  <path class="cls-6" d="M187.81,125.71c-4.63,1.83-9.31,3.52-14.25,4.37l14.25-4.37Z"/>
  <path class="cls-5" d="M204.14,97.21c.8-.03.63-.14.69.56.17,2.22-.04,4.16-.46,6.1l-.23-.46c.13-1.15.22-2.96.23-4.14,0-.43.15-1.13-.23-1.38,0-.23.02-.46,0-.69Z"/>
  <path class="cls-6" d="M156.09,106.86c3.03-.82,6.42-.81,9.55-.69.44.02.92-.24.79.46-3-.28-7.38-.26-10.34.23Z"/>
  <path class="cls-6" d="M265.51,79.97c-2.8.06-5.57.44-8.28,1.15-.13-.61.3-.46.69-.57,1.44-.4,3.44-.73,4.94-.82.76-.05,1.98-.14,2.65.24Z"/>
  <path class="cls-5" d="M292.64,95.37c.07.05.41-.14.47.13.14.62.08,4.36-.01,5.15h-.69c.21-1.76.32-3.5.23-5.29Z"/>
  <path class="cls-5" d="M171.95,130.3c-2.22.3-4.45.4-6.67.69,0-.01-.31-.07-.13-.23.21-.24,4.73-.61,5.53-.69.37-.04,1.03-.14,1.26.23Z"/>
  <path class="cls-3" d="M105.98,98.13c-.02.65-.22.63-.78.66-.82.05-1.93-.18-2.82-.24-.41-.03-.9.34-.78-.42,1.45,0,2.91,0,4.37,0Z"/>
  <path class="cls-6" d="M150.34,100.2c1.03-.04,1.71,1.15,2.49,1.59,1.58.89,3.39,1.22,5,1.84.26.1.56.04.33.48-1.48-.29-3.01-.85-4.37-1.49-1.61-.75-2.26-1.38-3.44-2.42Z"/>
  <path class="cls-6" d="M204.37,103.87c-.27,1.23-.51,1.72-.9,2.71-.23.59.1,1.68-.94,1.43.45-1.04,1.5-3.61,1.61-4.6l.23.46Z"/>
  <path class="cls-5" d="M241.61,102.96c.33,1.02.61,1.94,1.15,2.83.17.28.9.47.69,1.31-1.33-.86-1.82-2.74-2.3-4.14h.46Z"/>
  <path class="cls-6" d="M164.14,79.97l-4.55.62-1.19-.16c2-.46,3.69-.56,5.75-.46Z"/>
  <path class="cls-5" d="M61.15,153.97l-.46.69v-3.56s.46.57.46.57c-.06.63-.06,1.67,0,2.3Z"/>
  <path class="cls-3" d="M100.69,98.13l-.35.92-2.41-.92c.92,0,1.84,0,2.76,0Z"/>
  <path class="cls-6" d="M189.65,114.68c.88.99,1.14,1.54,1.84,2.59.51.77,1.51,1.31,1.37,2.47-1.04.19-.54-.37-.85-1.1-.45-1.08-1.43-1.99-2.14-2.98-.07-.1-.6-.93-.23-.98Z"/>
  <path class="cls-6" d="M267.58,79.97c.27-.33,2.87-.32,2.99-.23.04.03-.02.33,0,.46-.99-.11-1.99-.2-2.99-.23Z"/>
  <path class="cls-6" d="M167.12,80.43c-.18.25-2.42.08-2.53,0-.04-.03.03-.36,0-.46.88.06,1.67.27,2.53.46Z"/>
  <path class="cls-3" d="M94.48,98.13c-.5.07-.42.89-.58.92-.65.11-.86-.32-.8-.92.46,0,.92,0,1.38,0Z"/>
  <path class="cls-16" d="M170.11,162.94c.28.04.62-.02.92,0-.59.58-2.13.05-.92,0Z"/>
  <path class="cls-6" d="M200.92,133.98c.19-.1,1.23.44,1.32.51.15.13.03.38.06.41-.64-.08-.96-.51-1.38-.92Z"/>
  <path class="cls-6" d="M202.53,135.13c.16.06.54-.1.67.02.1.08-.02.37.02.44-.34,0-.58-.14-.69-.46Z"/>
  <path class="cls-6" d="M199.54,133.06c.27.13.94.12,1.11.28.12.11.01.37.04.41-.52-.03-.79-.4-1.15-.69Z"/>
  <path class="cls-6" d="M260.46,171.44c-.36.22-.49.43-.92,0h.92Z"/>
  <path class="cls-3" d="M95.63,98.13l-.28.16-.18-.16c.15,0,.31,0,.46,0Z"/>
  <path class="cls-6" d="M199.31,132.83l-.69-.46c.28.17.46.31.69.46Z"/>
  <path class="cls-6" d="M203.79,135.59c.15.08.15.15,0,.23v-.23Z"/>
  <path class="cls-14" d="M91.26,115.59c-.06.12-.59.68-.74.75-15.34.3-30.8.23-46.14.04-1.42-.39-1.06-3.65-.68-4.75,3.26-9.36,16.63-13.41,25.84-12.82,6.17.4,15.29,3.54,19.2,8.5,1.4,1.78,1.7,3.4,2.31,5.58.05.19.4.16.44.32.14.57.05,1.84-.22,2.37Z"/>
  <path class="cls-14" d="M76.93,81.2c1.07,1,1.75,2.55,2.16,3.88.06.18.39.18.43.34.09.39.09,2.96,0,3.35-.04.17-.37.18-.43.34-2.34,6.29-10.93,8.02-16.84,5.95-3.58-1.26-5.78-2.85-6.88-6.41-.06-.18-.39-.18-.43-.34-.08-.34-.08-2.1,0-2.44.04-.17.38-.14.44-.33.73-2.59,1.78-4.19,4.27-5.58,4.77-2.66,13.16-2.63,17.28,1.23Z"/>
  <path class="cls-6" d="M88.73,107.32l1.15.86c1.35,2.54,1.95,4.03,1.83,7.07-.02.53.15.78-.46.34.27-.53.36-1.8.22-2.37-.04-.17-.39-.13-.44-.32-.61-2.18-.91-3.8-2.31-5.58Z"/>
  <path class="cls-10" d="M90.11,98.13c1.31.72-.81,1.65-.69,0,.23,0,.46,0,.69,0Z"/>
  <path class="cls-10" d="M88.73,99.74c-.29-.68,1.38-.75,1.15,0-.38,0-.77,0-1.15,0Z"/>
  <path class="cls-13" d="M43.45,28.5l4.24-.93h48.75c1.64.29,3.32.6,4.77,1.45.25.15,1.11,1.33,1.54.86.95.87,1.45,1.74,1.84,2.99-.15,5.97.28,11.98-.23,17.93-.79-.1-.26.37-.58.91-1.81,3.08-6.27,2.95-9.09,3.56-.69.15-2.59,1.08-2.75,1.73-.1.42.01,1.31,0,1.84-.55,1.17-.05,2.78-.23,4.03-.05.32.13.39-.35.34-4.61-2.29-9.02-5.31-13.72-7.38-.17-.08-.18-.38-.36-.43h-.75c.02-.08-.01-.16,0-.24h-29.65c-1.3-.13-3.33-.74-4.41-1.46-.59-.4-2.09-2.45-2.26-2.45.3-.96-.4-1.05-.46-1.61.7.13.44-.35.46-.79.16-4.06-.75-13.75.24-16.96.05-.15,1.03-1.16.91-1.78.72-.6.92-1.03,2.07-1.61ZM50.57,35.85c-.1.15-.42.32-.46.46-.3,1.17.11,1.69.69,2.53h41.61c.18-.16.16-.6.23-.69.02-.02.4.1.46-.15.22-.86,0-1.46-.69-1.92v-.23h-41.84ZM50.8,44.12c-1.1.29-.53.47-.54,1.22,0,.27-.26.92-.14,1.07.04.05.38-.05.46,0,.03.02.23.41.23.46,0,.04-.19.05-.23.11,10.19.13,20.64.23,30.92.12.39,0,1.02.15,1.26-.23.08,0,.15,0,.23,0,.03,0,.19.34.43.2.05-.03.03-.29.11-.34.35-.22,1.54-.9,1.54-1.36-.4-.79-1.18-1.28-2.08-1.26h-32.18Z"/>
  <path class="cls-2" d="M96.55,27.12c2.37.53,4.39,1.09,6.21,2.76-.44.47-1.3-.72-1.54-.86-1.45-.85-3.13-1.16-4.77-1.45h-48.75s-4.24.93-4.24.93c.83-.42,1.67-.92,2.64-.92.11-.04.13-.12.12-.23.23,0,.46,0,.69,0,.34,0,.65.06.92-.23h48.74Z"/>
  <path class="cls-7" d="M41.38,30.11c.13.62-.86,1.63-.91,1.78-.99,3.21-.08,12.9-.24,16.96-.02.44.24.92-.46.79-.08-.7.01-1.56,0-2.3,0-.23,0-.46,0-.69-.05-2.83-.02-5.68,0-8.5,0-.23,0-.46,0-.69,0-.84-.01-1.69,0-2.53,0-.38-.01-.77,0-1.15.01-.3-.06-1.28,0-1.38.06-.1.27.31.46-.46.07-.29,0-.64.23-.92.06-.04.49-.56.92-.92Z"/>
  <path class="cls-16" d="M47.59,55.38c9.64-.25,19.32.18,28.97,0-.11.42-.74.18-1.03.23h-28.51c-.39-.34.43-.23.57-.23Z"/>
  <path class="cls-8" d="M76.55,55.15h-28.97c-.23-.02-.46.02-.69,0h29.65Z"/>
  <path class="cls-9" d="M76.55,55.15c-.01.07.02.16,0,.23-9.64.18-19.33-.25-28.97,0v-.23h28.97Z"/>
  <path class="cls-16" d="M104.6,32.86c0-.14-.11-.96.23-.57-.14,6.24.29,12.53-.23,18.73-.18.06-.19-.23-.23-.23.51-5.94.08-11.96.23-17.93Z"/>
  <path class="cls-16" d="M91.95,56.99c.7-.13.44.35.46.79.07,1.76-.05,3.53,0,5.3h-.46c.03-1.42-.04-2.84,0-4.25.01-.53-.1-1.42,0-1.84Z"/>
  <path class="cls-5" d="M39.77,46.65c-.38-.24-.23-.87-.23-1.26-.02-1.99-.02-3.99,0-5.98,0-.39-.15-1.02.23-1.26-.02,2.83-.05,5.68,0,8.5Z"/>
  <path class="cls-5" d="M39.77,49.64c.06.55.76.65.46,1.61-.04,0-.35.36-.46.23-.26-.3-.44-3.58,0-4.14.01.74-.08,1.6,0,2.3Z"/>
  <path class="cls-5" d="M39.77,37.46c-.38-.54-.39-1.94,0-2.53-.01.84,0,1.69,0,2.53Z"/>
  <path class="cls-5" d="M39.77,32.4c-.06.1.01,1.08,0,1.38-.55-.58-.11-2.72,0-1.38Z"/>
  <path class="cls-5" d="M40.46,31.02c-.23.28-.16.63-.23.92-1.15-1.25-.02-.75.23-.92Z"/>
  <path class="cls-16" d="M46.9,27.35c-.23,0-.46,0-.69,0,0-.03-.21-.12-.23-.23l.92.23Z"/>
  <path class="cls-8" d="M249.19,204.07c.65-.62.63-.93,1.09-1.39,1.98-1.97,6.3-2.1,8.6-.6.89.58,1.17,1.19,1.59,2.04.09.17.4.18.43.34.28,1.23-.14,3.24-.9,4.26-.05.07-1.25,1.04-1.33,1.08-2.88,1.61-6.54,1.08-8.8-1.25-.07-.07-.63-.75-.68-.81-.06-1.31-.34-2.36,0-3.68Z"/>
  <path class="cls-6" d="M249.19,207.75c-.74-.9-.95-1.83-.68-3.05,0-.05.55-.49.68-.62-.34,1.31-.06,2.37,0,3.68Z"/>
  <path class="cls-7" d="M75.86,201.08c1.5.18,1.84.98,2.76,1.97.15.65-.3.46-.45.73-.29.54-.18,1-.93,1.43-1.82.34-3.67.21-5.52.23-.03-.03.01-.25-.23-.46.11-1-.16-2.27,0-3.22.02-.1.36-.4.23-.69,1.32.11,2.86-.16,4.14,0Z"/>
  <path class="cls-16" d="M71.49,201.77c-.16.95.11,2.22,0,3.22-.04-.04-.36.08-.43-.02-.09-.12-.04-2.41-.03-2.86.01-.4-.07-.93.46-.34Z"/>
  <path class="cls-16" d="M77.24,205.22c-.6.35-1.04.41-1.72.47-.72.06-3.45.12-3.8-.24,1.85-.01,3.7.11,5.52-.23Z"/>
  <path class="cls-16" d="M71.72,201.08c1.27-.53,2.9-.09,4.26-.23l-.12.23c-1.28-.16-2.82.11-4.14,0Z"/>
  <path class="cls-7" d="M179.77,201.08s.21.18.46.23h.46c.58.34,1.06,1.38,1.15,1.38v1.38c-.13.01-.61.73-.92.92-1.48.9-4.05.28-5.75.46-.05-.02-.14-.17-.23-.23v-3.91c.09-.04.17-.22.23-.23,1.1-.15,3.43-.09,4.6,0Z"/>
  <path class="cls-16" d="M174.94,201.31v3.91c-.07-.05-.43.14-.47-.14l.04-3.75c.13-.09.35.02.43-.02Z"/>
  <path class="cls-16" d="M180.92,204.99l.14.26c-1.65.53-4.29.72-5.89.2,1.7-.18,4.26.44,5.75-.46Z"/>
  <path class="cls-16" d="M179.77,201.08c-1.17-.09-3.49-.15-4.6,0,1.32-.38,3.26-.39,4.6,0Z"/>
  <path class="cls-16" d="M181.84,202.69c.07,0,.26-.3.46-.23v1.72c-.06.32-.41-.12-.46-.11v-1.38Z"/>
  <path class="cls-16" d="M180.69,201.31h-.46c.08.02-.03-.29.46,0Z"/>
  <rect class="cls-16" x="191.95" y="201.54" width=".23" height="3.22"/>
  <path class="cls-7" d="M212.18,202c.69-.02,1.27,1.75,1.61,2.36.38.68.5.88.85,1.72.14.33.88.37.53,1.43h-5.29c-.06-.15.04-.48,0-.69.27-.45.45-1,.69-1.45.4-.75.52-1.04.89-1.91.16-.37.73-.75.72-1.47Z"/>
  <path class="cls-5" d="M212.18,202c.01.72-.57,1.09-.72,1.47-.36.87-.49,1.16-.89,1.91-.24.45-.42.99-.69,1.45-.1-.53-.37-.65.02-1.43.13-.26.9-1.16,1.1-1.52.35-.63.38-1.86,1.18-1.87Z"/>
  <path class="cls-5" d="M215.17,207.52c-.11.33-.31.22-.56.24-1.08.07-3.13.13-4.16,0-.26-.03-.43.1-.56-.24h5.29Z"/>
  <path class="cls-7" d="M134.25,201.08c1.32.21,2.75,1.26,2.53,2.76-.1,0-.61,1.01-1.3,1.34-1.06.52-5.15.93-5.83.03v-3.91s.43-.23.46-.23c.72-.12,3.41-.11,4.14,0Z"/>
  <path class="cls-3" d="M126.9,207.98c1.02.15,2.25-.52,2.53.69,0,.31,0,.61,0,.92-.68.75.35,2.25-.69,2.76-.61.02-1.23-.01-1.84,0,0-1.45,0-2.91,0-4.37Z"/>
  <path class="cls-3" d="M134.25,200.85c1,.09,1.95.97,2.17.94.08-.01.49-.89,1.28-.94,1.29-.08,1.52.81,1.61,1.84-1.23.14-2.45-.19-2.07,1.38-.2.07-.39-.23-.46-.23.22-1.5-1.2-2.55-2.53-2.76v-.23Z"/>
  <path class="cls-5" d="M134.25,200.85v.23c-.73-.11-3.42-.12-4.14,0,1.15-.35,2.93-.33,4.14-.23Z"/>
  <path class="cls-5" d="M129.65,205.22c-.38-.5-.38-3.52,0-3.91v3.91Z"/>
  <path class="cls-8" d="M88.5,203.84c.52-.7,1.81-1.84,2.7-2.24,2.06-.92,5.91-.69,7.57.93.19.19.52,1.18.99,1.31.06.84.28,1.55.24,2.42-.09,1.92-1.02,2.88-2.54,3.79-2.46.82-4.39,1.08-6.83-.18-.75-.39-1.17-1.12-1.91-1.42.03-.26-.19-.5-.23-.69-.08-.37-.25-1.81-.24-2.17.01-.57.52-1.26.24-1.73Z"/>
  <path class="cls-6" d="M99.77,203.84s.11-.22.22-.23c.27.84.41.82.47,1.84.03.5.09,1.47,0,1.91-.04.18-.4.18-.52.44-.52,1.09-.74,1.77-2.03,2.37-.3.14-.41-.13-.43-.13,1.52-.9,2.45-1.87,2.54-3.79.04-.87-.18-1.58-.24-2.42Z"/>
  <path class="cls-10" d="M88.5,207.75c-.24-.6-.64-.6-.71-1.24-.14-1.35-.02-1.69.71-2.67.28.48-.22,1.16-.24,1.73,0,.36.16,1.8.24,2.17Z"/>
  <path class="cls-1" d="M228.96,212.34c.05-.5-.21-1.28.23-1.61-.02.49.18,1.47-.23,1.61Z"/>
  <path class="cls-1" d="M229.19,204.76v-.23c0,.08,0,.15,0,.23Z"/>
  <path class="cls-3" d="M241.03,212.11c.15.08.15.15,0,.23v-.23Z"/>
  <path class="cls-1" d="M129.42,209.59c-.02.92.01,1.84,0,2.76-.23,0-.46,0-.69,0,1.04-.5,0-2.01.69-2.76Z"/>
  <path class="cls-10" d="M204.37,99.28c-.39-.25-.22-.94-.23-1.38.38.25.23.95.23,1.38Z"/>
  <path class="cls-3" d="M266.43,88.25c.77-.29,1.64-.33,1.97.68.6,1.85-.23,5.81.09,7.9.07.29.52.24.7.38.03.02-.14.58.33.48,3.07-.11,6.15.08,9.22-.02.44-.01.92.23.79-.46.49.02,1.39-.19,1.58.38.24.73.14,2.01-.82,2.1-3.65.4-7.9-.36-11.47.04-.32.04-.33.02-.55.24s-.21.23-.24.55c-.27,2.41.22,5.33.02,7.8l-1.62.61c-.88-.33-.34-.29-.69-.98-.13-.25-.46-.14-.46-.17v-8.04h-11.38c-.11,0-1.47-.47-1.5-.61-.25-.98.56-1.46,1.39-1.69l10.71.25c.46.07.29-.44.33-.48.03-.03.4.1.46-.15.26-.96-.05-3.97,0-5.26.01-.44-.23-.92.46-.79-.05,1.67-.07,3.51,0,5.17.01.28-.17.85.23.8-.02-2.1.03-4.22,0-6.32,0-.39.15-1.02-.23-1.26.04-.41.12-.42.23-.69.03,1.02.68.46.46-.46Z"/>
  <path class="cls-6" d="M270.8,97.21c.03.35.66.35.69,0,2.64,0,5.42-.11,8.05,0,.13.69-.35.44-.79.46-3.07.1-6.15-.09-9.22.02-.47.1-.3-.45-.33-.48h1.61Z"/>
  <path class="cls-6" d="M256.09,97.21c1.17.39,2.99.38,4.14,0h4.6s.13.55-.33.48l-10.71-.25c.07-.02.16.02.23,0,.26-.06.65-.23.69-.23.44-.05.93.02,1.38,0Z"/>
  <path class="cls-6" d="M268.27,106.4v.23c-.13,1.4.33,3.1-1.84,2.3l1.62-.61c.2-2.47-.29-5.39-.02-7.8.04-.32.02-.33.24-.55.53,2.06.16,4.35,0,6.43Z"/>
  <path class="cls-5" d="M265.74,89.4c.38.24.23.87.23,1.26.03,2.11-.03,4.22,0,6.32-.4.05-.22-.52-.23-.8-.07-1.66-.05-3.51,0-5.17.02-.52-.05-1.11,0-1.61Z"/>
  <path class="cls-3" d="M260.23,97.21c-1.15.38-2.97.39-4.14,0,1.37-.06,2.77,0,4.14,0Z"/>
  <path class="cls-5" d="M266.43,88.25c.22.92-.43,1.48-.46.46.03-.08-.07-.29.05-.41s.32-.02.41-.05Z"/>
  <path class="cls-3" d="M271.49,97.21c-.03.35-.66.35-.69,0h.69Z"/>
  <path class="cls-3" d="M254.71,97.21s-.43.17-.69.23l.69-.23Z"/>
  <path class="cls-3" d="M268.27,106.63v-.23s.01.09,0,.23Z"/>
  <path class="cls-10" d="M265.51,117.2c.08,0,.15,0,.23,0l-.11.23-.11-.23Z"/>
  <path class="cls-9" d="M234.71,171.44c-.23,0-.46,0-.69,0,.03-.35.66-.35.69,0Z"/>
  <path class="cls-9" d="M240.23,171.44c-.08,0-.15,0-.23,0l.11-.23.11.23Z"/>
  <path class="cls-3" d="M92.41,36.08c.69.46.92,1.06.69,1.92-.07.25-.45.13-.46.15l-1.48.47c-12.95.1-25.91-.18-38.86-.02-.39,0-1.02-.15-1.26.23h-.23c-.58-.84-.99-1.36-.69-2.53l42.3-.23Z"/>
  <path class="cls-3" d="M82.99,44.12c.9-.02,1.68.47,2.08,1.26,0,.45-1.19,1.13-1.54,1.36-.08.05-.06.31-.11.34-.23.14-.39-.2-.43-.2l-32.41-.46c-.08-.05-.42.05-.46,0-.12-.15.14-.8.14-1.07.01-.75-.55-.94.54-1.22h32.18Z"/>
  <path class="cls-6" d="M92.41,35.85v.23l-42.3.23c.04-.14.36-.31.46-.46h41.84Z"/>
  <path class="cls-16" d="M92.41,38.84h-41.38c.24-.38.87-.23,1.26-.23,12.95-.16,25.91.12,38.86.02l1.48-.47c-.07.09-.05.53-.23.69Z"/>
  <path class="cls-8" d="M82.76,46.88c-.24.38-.87.23-1.26.23-10.28.11-20.73,0-30.92-.12.04-.06.23-.08.23-.11,10.64.22,21.32-.29,31.95,0Z"/>
  <path class="cls-16" d="M50.57,46.42l32.41.46c-.08,0-.15,0-.23,0-10.63-.29-21.32.22-31.95,0,0-.05-.2-.44-.23-.46Z"/>
</svg>