<svg width="80" height="80" viewBox="0 0 80 80" fill="none" xmlns="http://www.w3.org/2000/svg">
  <!-- Background Circle -->
  <circle cx="40" cy="40" r="40" fill="#f0f9ff"/>
  <circle cx="40" cy="40" r="32" fill="#2563eb" opacity="0.1"/>
  
  <!-- Create Group Icon -->
  <g transform="translate(20, 20)">
    <!-- People Icons -->
    <circle cx="15" cy="12" r="6" fill="#2563eb"/>
    <circle cx="25" cy="12" r="6" fill="#2563eb"/>
    
    <!-- Bodies -->
    <path d="M8 32 C8 26 11 24 15 24 C19 24 22 26 22 32" stroke="#2563eb" stroke-width="2" fill="none"/>
    <path d="M18 32 C18 26 21 24 25 24 C29 24 32 26 32 32" stroke="#2563eb" stroke-width="2" fill="none"/>
    
    <!-- Plus Sign -->
    <circle cx="35" cy="15" r="8" fill="#16a34a"/>
    <line x1="31" y1="15" x2="39" y2="15" stroke="white" stroke-width="2"/>
    <line x1="35" y1="11" x2="35" y2="19" stroke="white" stroke-width="2"/>
  </g>
  
  <!-- Step Number -->
  <circle cx="65" cy="15" r="8" fill="#2563eb"/>
  <text x="65" y="19" text-anchor="middle" font-family="Arial, sans-serif" font-size="10" font-weight="bold" fill="white">1</text>
</svg>