<svg xmlns="http://www.w3.org/2000/svg" xmlns:xlink="http://www.w3.org/1999/xlink" width="50" zoomAndPan="magnify" viewBox="0 0 37.5 37.499999" height="50" preserveAspectRatio="xMidYMid meet" version="1.2"><defs><clipPath id="cb313ef880"><path d="M 0 0 L 37.007812 0 L 37.007812 37.007812 L 0 37.007812 Z M 0 0 "/></clipPath><clipPath id="faaac0e066"><path d="M 0.71875 1 L 36.242188 1 L 36.242188 37.007812 L 0.71875 37.007812 Z M 0.71875 1 "/></clipPath><clipPath id="cf390bed96"><path d="M 2 16 L 35 16 L 35 37.007812 L 2 37.007812 Z M 2 16 "/></clipPath><clipPath id="8ea296f06a"><path d="M 34.613281 34.785156 L 37.007812 34.785156 L 37.007812 37.007812 L 34.613281 37.007812 Z M 34.613281 34.785156 "/></clipPath></defs><g id="56181a2872"><g clip-rule="nonzero" clip-path="url(#cb313ef880)"><path style=" stroke:none;fill-rule:nonzero;fill:#ffffff;fill-opacity:1;" d="M 0 0 L 37.007812 0 L 37.007812 37.007812 L 0 37.007812 Z M 0 0 "/><path style=" stroke:none;fill-rule:nonzero;fill:#ffffff;fill-opacity:1;" d="M 0 0 L 37.007812 0 L 37.007812 37.007812 L 0 37.007812 Z M 0 0 "/></g><g clip-rule="nonzero" clip-path="url(#faaac0e066)"><path style=" stroke:none;fill-rule:nonzero;fill:#f3a61e;fill-opacity:1;" d="M 36.238281 19.222656 C 36.238281 21.726562 35.722656 24.109375 34.789062 26.265625 C 32.066406 32.582031 25.789062 37.003906 18.480469 37.003906 C 11.171875 37.003906 5.511719 33.003906 2.597656 27.175781 C 1.398438 24.785156 0.722656 22.082031 0.722656 19.222656 C 0.722656 9.402344 8.675781 1.445312 18.480469 1.445312 C 28.289062 1.445312 36.238281 9.402344 36.238281 19.222656 Z M 36.238281 19.222656 "/></g><g clip-rule="nonzero" clip-path="url(#cf390bed96)"><path style=" stroke:none;fill-rule:nonzero;fill:#3d3b3c;fill-opacity:1;" d="M 34.789062 26.265625 C 32.066406 32.582031 25.789062 37.003906 18.480469 37.003906 C 11.171875 37.003906 5.511719 33.003906 2.597656 27.175781 C 3.109375 26.890625 3.6875 26.65625 4.332031 26.484375 C 6.527344 25.894531 9.777344 25.128906 9.777344 25.128906 L 10.777344 22.660156 L 10.617188 16.976562 C 10.617188 16.976562 12.832031 16.804688 14.046875 16.976562 C 15.257812 17.140625 19.832031 18.992188 19.832031 18.992188 L 22.398438 17.402344 C 22.398438 17.402344 24.382812 17.171875 25.371094 17.222656 C 26.355469 17.277344 27.652344 23.007812 27.652344 23.007812 L 28.597656 24.652344 C 28.597656 24.652344 30.257812 25.46875 32.5 25.925781 C 33.390625 26.109375 34.132812 26.144531 34.789062 26.265625 Z M 34.789062 26.265625 "/></g><path style=" stroke:none;fill-rule:nonzero;fill:#56352c;fill-opacity:1;" d="M 13.15625 13.082031 C 13.15625 13.082031 11.824219 12.160156 11.550781 11.808594 C 11.277344 11.460938 10.691406 10.671875 10.324219 9.730469 C 9.957031 8.792969 8.882812 7.457031 9.277344 6.613281 C 9.671875 5.765625 11.742188 4.035156 11.742188 4.035156 C 11.742188 4.035156 12.113281 1.726562 13.796875 1.015625 C 15.480469 0.304688 20.84375 0 23.65625 1.441406 C 25.101562 2.183594 26.921875 2.4375 27.363281 2.964844 C 27.363281 2.964844 26.59375 3.113281 26.25 3.695312 C 26.128906 3.898438 27.09375 4.488281 27.230469 4.621094 C 28.019531 5.386719 28.414062 5.28125 28.414062 5.28125 C 28.414062 5.28125 27.464844 5.675781 26.414062 5.515625 C 26.414062 5.515625 27.070312 6.042969 27.835938 7.464844 C 28.597656 8.886719 27.964844 9.472656 27.964844 9.472656 C 27.964844 9.472656 28.0625 8.703125 26.59375 8.414062 C 26.59375 8.414062 26.722656 9.179688 26.414062 10.007812 C 26.105469 10.835938 24.96875 12.125 24.96875 12.125 L 18.480469 16.28125 Z M 13.15625 13.082031 "/><path style=" stroke:none;fill-rule:nonzero;fill:#da8059;fill-opacity:1;" d="M 12.601562 12.429688 C 12.601562 12.429688 12.058594 11.03125 11.210938 11.167969 C 10.367188 11.300781 10.097656 12.855469 10.523438 14.289062 C 10.949219 15.722656 11.878906 17.140625 12.878906 16.378906 C 13.640625 15.800781 12.601562 12.429688 12.601562 12.429688 Z M 12.601562 12.429688 "/><path style=" stroke:none;fill-rule:nonzero;fill:#da8059;fill-opacity:1;" d="M 24.386719 11.867188 C 24.386719 11.867188 24.753906 10.503906 25.558594 10.542969 C 26.363281 10.582031 26.773438 12.011719 26.523438 13.394531 C 26.269531 14.78125 25.542969 16.203125 24.527344 15.59375 C 23.757812 15.132812 24.386719 11.867188 24.386719 11.867188 Z M 24.386719 11.867188 "/><path style=" stroke:none;fill-rule:nonzero;fill:#fbc092;fill-opacity:1;" d="M 25.371094 24.679688 L 24.320312 27.742188 L 16.117188 29.511719 L 11.742188 25.261719 C 11.742188 25.261719 13.71875 24.335938 14.140625 23.304688 C 14.289062 22.933594 14.289062 22.195312 14.226562 21.398438 C 14.113281 19.960938 13.796875 18.332031 13.796875 18.332031 L 23.371094 17.839844 C 23.371094 17.839844 23.289062 19.347656 23.261719 20.8125 C 23.242188 21.929688 23.257812 23.023438 23.371094 23.410156 C 23.636719 24.308594 25.371094 24.679688 25.371094 24.679688 Z M 25.371094 24.679688 "/><path style=" stroke:none;fill-rule:nonzero;fill:#da8059;fill-opacity:1;" d="M 23.371094 17.839844 C 23.371094 17.839844 23.289062 19.347656 23.261719 20.8125 C 21.804688 22.199219 19.320312 24.445312 17.394531 24.164062 C 16.050781 23.964844 14.757812 22.933594 14.226562 21.398438 C 14.113281 19.960938 13.796875 18.332031 13.796875 18.332031 Z M 23.371094 17.839844 "/><path style=" stroke:none;fill-rule:nonzero;fill:#fbc092;fill-opacity:1;" d="M 12.117188 11.492188 C 12.117188 11.492188 12.691406 15.671875 12.652344 16.554688 C 12.609375 17.441406 12.710938 18.078125 13.265625 18.53125 C 13.820312 18.984375 16.636719 21.558594 17.707031 21.722656 C 18.773438 21.886719 19.742188 21.824219 20.460938 21.390625 C 21.179688 20.960938 23.359375 19.167969 23.871094 18.738281 C 24.386719 18.304688 24.550781 17.855469 24.550781 16.648438 C 24.550781 15.445312 24.449219 12.441406 24.550781 10.710938 C 24.601562 9.863281 24.179688 4.722656 24.179688 4.722656 L 17.007812 2.769531 L 12.957031 4.621094 L 11.210938 6.289062 L 12.117188 11.496094 Z M 12.117188 11.492188 "/><path style="fill:none;stroke-width:6;stroke-linecap:round;stroke-linejoin:round;stroke:#da8059;stroke-opacity:1;stroke-miterlimit:4;" d="M 206.607616 148.373952 C 206.607616 148.373952 210.793587 184.307704 209.664786 190.13226 " transform="matrix(0.0830527,0,0,0.0831608,0.723491,-1.081091)"/><path style="fill:none;stroke-width:6;stroke-linecap:round;stroke-linejoin:round;stroke:#7d2929;stroke-opacity:1;stroke-miterlimit:4;" d="M 145.887514 144.005535 C 145.887514 144.005535 167.240671 127.847089 178.011317 127.095534 C 188.781962 126.343978 192.027266 128.457728 192.027266 128.457728 " transform="matrix(0.0830527,0,0,0.0831608,0.723491,-1.081091)"/><path style="fill:none;stroke-width:6;stroke-linecap:round;stroke-linejoin:round;stroke:#7d2929;stroke-opacity:1;stroke-miterlimit:4;" d="M 230.077276 128.457728 C 230.077276 128.457728 234.122147 127.142506 242.588157 126.907645 C 251.007133 126.719756 269.303121 139.778035 269.303121 139.778035 " transform="matrix(0.0830527,0,0,0.0831608,0.723491,-1.081091)"/><path style=" stroke:none;fill-rule:nonzero;fill:#3d1119;fill-opacity:1;" d="M 16.144531 12.074219 C 16.167969 12.3125 16.132812 12.519531 16.042969 12.699219 C 15.953125 12.878906 15.832031 12.976562 15.683594 12.988281 C 15.53125 13.003906 15.398438 12.929688 15.273438 12.773438 C 15.152344 12.613281 15.082031 12.414062 15.058594 12.175781 C 15.035156 11.9375 15.070312 11.726562 15.160156 11.546875 C 15.25 11.371094 15.371094 11.273438 15.519531 11.257812 C 15.667969 11.246094 15.804688 11.316406 15.929688 11.476562 C 16.050781 11.632812 16.121094 11.832031 16.144531 12.074219 Z M 16.144531 12.074219 "/><path style=" stroke:none;fill-rule:nonzero;fill:#3d1119;fill-opacity:1;" d="M 21.15625 10.953125 C 21.304688 10.984375 21.414062 11.089844 21.488281 11.277344 C 21.5625 11.460938 21.578125 11.671875 21.53125 11.910156 C 21.488281 12.144531 21.398438 12.335938 21.261719 12.484375 C 21.128906 12.632812 20.984375 12.691406 20.835938 12.664062 C 20.6875 12.636719 20.578125 12.527344 20.503906 12.34375 C 20.429688 12.15625 20.417969 11.945312 20.460938 11.707031 C 20.503906 11.472656 20.59375 11.28125 20.730469 11.132812 C 20.867188 10.988281 21.007812 10.925781 21.15625 10.953125 Z M 21.15625 10.953125 "/><path style="fill:none;stroke-width:3;stroke-linecap:round;stroke-linejoin:round;stroke:#7d2929;stroke-opacity:1;stroke-miterlimit:4;" d="M 174.295679 217.094317 C 174.295679 217.094317 186.571393 230.481401 203.127145 230.481401 C 229.653976 230.481401 244.140259 217.094317 244.140259 217.094317 " transform="matrix(0.0830527,0,0,0.0831608,0.723491,-1.081091)"/><path style=" stroke:none;fill-rule:nonzero;fill:#3d3b3c;fill-opacity:1;" d="M 18.917969 28.59375 C 18.917969 28.59375 16.609375 27.992188 14.96875 26.523438 C 13.332031 25.054688 11.742188 23.367188 11.058594 21.308594 C 10.375 19.253906 10.804688 18.6875 11.621094 18.441406 L 10.617188 16.972656 C 10.617188 16.972656 8.371094 16.988281 8.054688 17.964844 C 7.738281 18.945312 9.535156 21.910156 9.492188 22.359375 C 9.449219 22.804688 8.816406 22.589844 8.019531 23.035156 C 7.222656 23.480469 7.265625 25.023438 8.113281 26.175781 C 8.960938 27.324219 9.925781 29.636719 11.542969 30.148438 C 13.15625 30.660156 18.097656 29.511719 18.097656 29.511719 C 18.097656 29.511719 21.738281 30.832031 24.144531 30.066406 C 26.546875 29.296875 28.902344 26.203125 29.527344 25.632812 C 30.152344 25.066406 30.71875 24.808594 30.152344 24.015625 C 29.585938 23.21875 28.621094 22.507812 28.621094 22.507812 C 28.621094 22.507812 29.527344 18.917969 28.929688 18.085938 C 28.335938 17.253906 25.371094 17.226562 25.371094 17.226562 C 25.371094 17.226562 25.839844 18.636719 25.753906 19.222656 C 25.671875 19.8125 26.164062 19.671875 26.265625 20.433594 C 26.386719 21.363281 20.113281 28.261719 18.917969 28.59375 Z M 18.917969 28.59375 "/><path style=" stroke:none;fill-rule:nonzero;fill:#56352c;fill-opacity:1;" d="M 12.203125 12.125 C 12.203125 12.125 12.40625 11.335938 12.476562 10.542969 C 12.542969 9.746094 12.082031 7.648438 12.476562 7.171875 C 12.691406 6.90625 13.6875 6.128906 14.757812 5.746094 C 15.636719 5.429688 16.601562 5.488281 16.941406 5.378906 C 17.421875 5.222656 19.332031 4.832031 20.710938 5.277344 C 22.09375 5.722656 23.042969 6.472656 23.214844 7.664062 C 23.382812 8.859375 24.1875 10.949219 24.554688 10.894531 C 24.925781 10.839844 24.960938 4.03125 24.960938 4.03125 L 20.460938 2.253906 L 14.570312 2.445312 L 10.324219 6.257812 Z M 12.203125 12.125 "/><g clip-rule="nonzero" clip-path="url(#8ea296f06a)"><path style=" stroke:none;fill-rule:nonzero;fill:#b3b3b3;fill-opacity:1;" d="M 49.417969 42.1875 C 49.417969 44.082031 48.707031 45.808594 47.539062 47.117188 C 46.183594 48.632812 44.210938 49.589844 42.015625 49.589844 C 39.820312 49.589844 37.851562 48.632812 36.496094 47.117188 C 35.324219 45.808594 34.617188 44.082031 34.617188 42.1875 C 34.617188 38.101562 37.929688 34.785156 42.015625 34.785156 C 46.105469 34.785156 49.417969 38.101562 49.417969 42.1875 "/></g></g></svg>