<svg width="32" height="32" viewBox="0 0 32 32" fill="none" xmlns="http://www.w3.org/2000/svg">
  <!-- Background -->
  <rect width="32" height="32" rx="4" fill="#2563EB"/>
  
  <!-- Receipt -->
  <rect x="8" y="6" width="12" height="16" rx="1" fill="white" stroke="#E5E7EB" stroke-width="0.5"/>
  
  <!-- Receipt lines -->
  <line x1="10" y1="9" x2="18" y2="9" stroke="#9CA3AF" stroke-width="0.5"/>
  <line x1="10" y1="11" x2="17" y2="11" stroke="#9CA3AF" stroke-width="0.5"/>
  <line x1="10" y1="13" x2="18" y2="13" stroke="#9CA3AF" stroke-width="0.5"/>
  <line x1="10" y1="15" x2="16" y2="15" stroke="#9CA3AF" stroke-width="0.5"/>
  
  <!-- Dollar sign -->
  <circle cx="14" cy="19" r="2" fill="#10B981"/>
  <text x="14" y="21" text-anchor="middle" fill="white" font-family="Arial, sans-serif" font-size="3" font-weight="bold">$</text>
  
  <!-- Split arrows -->
  <path d="M4 18 L8 18 M6 16 L4 18 L6 20" stroke="#10B981" stroke-width="1" stroke-linecap="round" stroke-linejoin="round" fill="none"/>
  <path d="M20 18 L24 18 M22 16 L24 18 L22 20" stroke="#10B981" stroke-width="1" stroke-linecap="round" stroke-linejoin="round" fill="none"/>
  
  <!-- People icons -->
  <circle cx="6" cy="26" r="2" fill="#F59E0B"/>
  <rect x="4" y="28" width="4" height="3" rx="2" fill="#F59E0B"/>
  
  <circle cx="26" cy="26" r="2" fill="#F59E0B"/>
  <rect x="24" y="28" width="4" height="3" rx="2" fill="#F59E0B"/>
</svg>